<?xml version="1.0" encoding="UTF-8" standalone="no"?>
<svg
   xmlns:dc="http://purl.org/dc/elements/1.1/"
   xmlns:cc="http://creativecommons.org/ns#"
   xmlns:rdf="http://www.w3.org/1999/02/22-rdf-syntax-ns#"
   xmlns:svg="http://www.w3.org/2000/svg"
   xmlns="http://www.w3.org/2000/svg"
   xmlns:sodipodi="http://sodipodi.sourceforge.net/DTD/sodipodi-0.dtd"
   xmlns:inkscape="http://www.inkscape.org/namespaces/inkscape"
   version="1.1"
   width="612"
   height="792"
   id="svg382"
   viewBox="0 0 612 792"
   sodipodi:docname="Colorful Buttons.svg"
   inkscape:version="0.92.3 (2405546, 2018-03-11)">
  <metadata
     id="metadata388">
    <rdf:RDF>
      <cc:Work
         rdf:about="">
        <dc:format>image/svg+xml</dc:format>
        <dc:type
           rdf:resource="http://purl.org/dc/dcmitype/StillImage" />
        <dc:title></dc:title>
      </cc:Work>
    </rdf:RDF>
  </metadata>
  <defs
     id="defs386" />
  <sodipodi:namedview
     pagecolor="#ffffff"
     bordercolor="#666666"
     borderopacity="1"
     objecttolerance="10"
     gridtolerance="10"
     guidetolerance="10"
     inkscape:pageopacity="0"
     inkscape:pageshadow="2"
     inkscape:window-width="1920"
     inkscape:window-height="1001"
     id="namedview384"
     showgrid="false"
     inkscape:zoom="0.2979798"
     inkscape:cx="306"
     inkscape:cy="664.47458"
     inkscape:window-x="-9"
     inkscape:window-y="-9"
     inkscape:window-maximized="1"
     inkscape:current-layer="svg382" />
  <path
     d="M 44.740945,261.35721 V 555.44673 H 560.34404 V 261.35721 Z"
     style="fill:#e0e0df;fill-rule:evenodd;stroke-width:0.39614585"
     id="path2"
     inkscape:connector-curvature="0" />
  <g
     id="Layer1000"
     transform="matrix(0.40047853,0,0,0.39186005,842.61829,379.87113)">
    <path
       d="m -1020.4724,-261.5666 a 61.4404,61.4405 0 0 1 61.4404,61.4405 61.4404,61.4405 0 1 1 -61.4404,-61.4405 z"
       style="fill:#bc5359;fill-rule:evenodd"
       id="path4"
       inkscape:connector-curvature="0" />
    <path
       d="m -1020.5055,-256.0173 a 61.4072,58.6658 0 0 1 61.4071,58.6658 61.4072,58.6658 0 1 1 -61.4071,-58.6658 z"
       style="fill:#f86e76;fill-rule:evenodd"
       id="path6"
       inkscape:connector-curvature="0" />
    <g
       id="Layer1001">
      <path
         d="m -1036.7541,-182.0726 c -1.2682,-0.2954 -2.216,-0.7616 -3.9351,-0.7616 -3.4773,0 -6.3222,1.0728 -8.5302,2.3863 -3.6439,2.1677 -6.2184,5.7416 -5.805,10.2987 0.1435,1.5819 0.9529,2.7189 1.7475,3.7108 1.124,1.403 3.6074,2.452 5.4763,2.7746 4.631,0.7997 9.2336,-0.5722 12.6768,-3.704 l 1.6147,-1.8125 c 0.1489,-0.2156 0.195,-0.3372 0.3343,-0.5543 0.1341,-0.2089 0.2406,-0.3465 0.3521,-0.5365 0.2547,-0.434 0.3409,-0.7288 0.532,-1.245 0.7699,-2.079 0.614,-3.6907 0.614,-6.4945 v -21.0732 c -0.014,-2.2079 1.0854,-3.4407 3.0295,-4.079 l 16.0276,-5.0438 c 1.845,-0.5856 3.5805,-1.0936 5.4283,-1.6801 1.8292,-0.5807 4.2296,-1.7443 5.1909,-0.4643 0.513,0.6831 0.2824,5.6352 0.2824,6.8261 0,4.739 0,9.4779 0,14.2169 -1.9569,-0.9389 -3.6655,-0.8886 -5.8391,-0.8886 -2.9897,0 -6.0004,1.3556 -7.8472,2.5616 -5.7199,3.7354 -7.1992,11.2039 -1.8512,14.7531 5.8877,3.9074 15.3983,1.3979 19.0856,-4.3732 0.6735,-1.0541 1.5293,-2.868 1.5293,-4.5636 v -41.6353 c 0,-2.4112 -1.8912,-4.3158 -4.3158,-4.3158 -1.6817,0 -6.0394,1.5222 -8.0428,2.1121 -6.3113,1.8587 -13.1931,4.1778 -19.4291,5.9581 -2.5817,0.7371 -5.0072,1.4934 -6.5243,3.7576 -0.6874,1.0258 -1.3251,2.016 -1.62,3.4575 -0.4383,2.1421 -0.1798,7.3585 -0.1798,9.9751 0,6.8123 0,13.6245 0,20.4368 z"
         style="fill:#d76168;fill-rule:evenodd"
         id="path8"
         inkscape:connector-curvature="0" />
      <path
         d="m -1030.6109,-191.5159 c -1.1932,-0.278 -2.085,-0.7167 -3.7025,-0.7167 -3.2718,0 -5.9486,1.0095 -8.0262,2.2454 -3.4286,2.0396 -5.851,5.4023 -5.462,9.6901 0.135,1.4885 0.8966,2.5583 1.6443,3.4916 1.0575,1.3201 3.3942,2.307 5.1527,2.6107 4.3573,0.7523 8.6879,-0.5385 11.9277,-3.4852 l 1.5193,-1.7054 c 0.1401,-0.2028 0.1835,-0.3173 0.3145,-0.5216 0.1262,-0.1965 0.2264,-0.3259 0.3313,-0.5047 0.2396,-0.4084 0.3208,-0.6858 0.5006,-1.1715 0.7245,-1.9562 0.5777,-3.4726 0.5777,-6.1108 v -19.828 c -0.013,-2.0774 1.0213,-3.2373 2.8505,-3.8379 l 15.0806,-4.7458 c 1.7359,-0.5511 3.3689,-1.029 5.1075,-1.5809 1.7212,-0.5463 3.9797,-1.6412 4.8842,-0.4368 0.4827,0.6427 0.2657,5.3022 0.2657,6.4227 0,4.459 0,8.918 0,13.3769 -1.8412,-0.8835 -3.4489,-0.8361 -5.4941,-0.8361 -2.813,0 -5.6458,1.2755 -7.3835,2.4103 -5.3819,3.5146 -6.7738,10.5418 -1.7418,13.8813 5.5398,3.6765 14.4884,1.3153 17.9579,-4.1148 0.6337,-0.9918 1.4389,-2.6985 1.4389,-4.294 v -39.1751 c 0,-2.2687 -1.7794,-4.0608 -4.0608,-4.0608 -1.5823,0 -5.6825,1.4323 -7.5675,1.9874 -5.9384,1.7488 -12.4135,3.9309 -18.2811,5.606 -2.4292,0.6935 -4.7114,1.4051 -6.1388,3.5355 -0.6468,0.9652 -1.2468,1.8969 -1.5243,3.2532 -0.4124,2.0156 -0.1692,6.9238 -0.1692,9.3857 0,6.4098 0,12.8195 0,19.2293 z"
         style="fill:#ffffff;fill-rule:evenodd"
         id="path10"
         inkscape:connector-curvature="0" />
    </g>
  </g>
  <g
     id="Layer1002"
     transform="matrix(0.40047853,0,0,0.39186005,842.61829,379.87113)">
    <path
       d="m -1700.7873,-261.5666 a 61.439,61.4405 0 0 1 61.439,61.4405 61.439,61.4405 0 1 1 -61.439,-61.4405 z"
       style="fill:#bf922f;fill-rule:evenodd"
       id="path14"
       inkscape:connector-curvature="0" />
    <path
       d="m -1700.8204,-256.0173 a 61.4058,58.6658 0 0 1 61.4058,58.6658 61.4058,58.6658 0 1 1 -61.4058,-58.6658 z"
       style="fill:#fabf3d;fill-rule:evenodd"
       id="path16"
       inkscape:connector-curvature="0" />
    <g
       id="Layer1003">
      <g
         id="Layer1004">
        <path
           d="m -1726.5737,-225.7984 v 54.2337 q 0,5.8576 5.8576,5.8576 h 6.2477 q 5.8577,0 5.8577,-5.8576 v -54.2337 q 0,-5.8576 -5.8577,-5.8576 h -6.2477 q -5.8576,0 -5.8576,5.8576 z"
           style="fill:#d8a638;fill-rule:evenodd"
           id="path18"
           inkscape:connector-curvature="0" />
        <path
           d="m -1721.1167,-229.1625 v 52.652 q 0,5.3363 5.3363,5.3363 h 5.6917 q 5.3363,0 5.3363,-5.3363 v -52.652 q 0,-5.3363 -5.3363,-5.3363 h -5.6917 q -5.3363,0 -5.3363,5.3363 z"
           style="fill:#ffffff;fill-rule:evenodd"
           id="path20"
           inkscape:connector-curvature="0" />
      </g>
      <g
         id="Layer1005">
        <path
           d="m -1696.934,-225.7984 v 54.2337 q 0,5.8576 5.8577,5.8576 h 6.2477 q 5.8576,0 5.8576,-5.8576 v -54.2337 q 0,-5.8576 -5.8576,-5.8576 h -6.2477 q -5.8577,0 -5.8577,5.8576 z"
           style="fill:#d8a638;fill-rule:evenodd"
           id="path23"
           inkscape:connector-curvature="0" />
        <path
           d="m -1691.477,-229.1625 v 52.652 q 0,5.3363 5.3364,5.3363 h 5.6916 q 5.3364,0 5.3364,-5.3363 v -52.652 q 0,-5.3363 -5.3364,-5.3363 h -5.6916 q -5.3364,0 -5.3364,5.3363 z"
           style="fill:#ffffff;fill-rule:evenodd"
           id="path25"
           inkscape:connector-curvature="0" />
      </g>
    </g>
  </g>
  <g
     id="Layer1006"
     transform="matrix(0.40047853,0,0,0.39186005,842.61829,379.87113)">
    <path
       d="m -1530.7085,-261.5659 a 61.439,61.4398 0 0 1 61.439,61.4398 61.439,61.4398 0 1 1 -61.439,-61.4398 z"
       style="fill:#b29e84;fill-rule:evenodd"
       id="path30"
       inkscape:connector-curvature="0" />
    <path
       d="m -1530.7417,-256.0167 a 61.4058,58.6652 0 0 1 61.4058,58.6652 61.4058,58.6652 0 1 1 -61.4058,-58.6652 z"
       style="fill:#e2c8a7;fill-rule:evenodd"
       id="path32"
       inkscape:connector-curvature="0" />
    <g
       id="Layer1007">
      <path
         d="m -1555.2841,-222.2038 7.7431,5.4377 c 0.5291,0.3758 0.9485,0.6886 1.5498,1.0864 1.6234,1.0741 14.7795,10.5497 15.7506,10.7759 v -12.1924 l 5.5375,0.7234 c 2.1892,0.555 4.9676,1.4932 6.7896,2.6017 0.6636,0.4037 1.3065,0.7324 1.9389,1.1916 0.6576,0.4776 1.1327,0.8531 1.7886,1.3418 2.7772,2.0695 5.3737,5.6963 6.902,8.7504 3.4223,6.8398 3.4813,15.4697 0.1669,22.355 -1.3596,2.8243 -3.1225,5.2275 -5.2058,7.3161 -3.7234,3.7329 -10.1983,7.4554 -17.5882,7.4554 -7.5218,0 -12.0766,-2.0084 -17.3957,-6.165 -0.6147,-0.4803 -1.1225,-1.0676 -1.6753,-1.62 -4.4158,-4.4126 -6.9869,-10.2665 -7.2909,-16.5995 -0.032,-0.6723 -0.1644,-0.763 -0.1644,-1.4832 h -10.2151 c 0,10.639 4.3004,19.1808 11.3248,26.2409 l 2.3025,1.9812 c 2.5767,1.9111 3.7201,2.7791 6.8558,4.3479 4.3852,2.194 9.2312,3.3422 14.1219,3.513 h 2.5799 c 4.8495,-0.1692 9.6713,-1.2872 14.0606,-3.29 2.0267,-0.9248 4.9781,-2.6146 6.7004,-4.009 0.4345,-0.3518 0.7607,-0.6281 1.1816,-0.9604 2.0506,-1.6191 3.7443,-3.4428 5.3632,-5.511 l 4.2121,-6.6621 c 2.9188,-6.601 3.462,-9.8066 3.462,-17.2981 0,-7.9129 -3.4719,-14.9147 -7.6964,-20.6427 -2.3466,-3.1819 -7.1779,-7.2691 -10.6461,-9.1252 -5.0895,-2.7239 -10.6575,-4.6675 -17.4104,-4.6675 v -12.1924 z"
         style="fill:#c4ae92;fill-rule:evenodd"
         id="path34"
         inkscape:connector-curvature="0" />
      <path
         d="m -1551.8831,-227.2234 7.2628,5.1004 c 0.4963,0.3524 0.8897,0.6459 1.4536,1.019 1.5227,1.0074 13.8627,9.8952 14.7736,10.1074 v -11.4361 l 5.194,0.6785 c 2.0533,0.5206 4.6595,1.4007 6.3684,2.4403 0.6224,0.3787 1.2255,0.687 1.8186,1.1177 0.6168,0.448 1.0625,0.8002 1.6777,1.2586 2.6049,1.9411 5.0403,5.3429 6.4738,8.2076 3.21,6.4154 3.2654,14.51 0.1565,20.9682 -1.2752,2.6491 -2.9288,4.9032 -4.8828,6.8622 -3.4924,3.5014 -9.5657,6.993 -16.4971,6.993 -7.0552,0 -11.3275,-1.8839 -16.3167,-5.7826 -0.5765,-0.4505 -1.0528,-1.0014 -1.5712,-1.5195 -4.1419,-4.1389 -6.5536,-9.6296 -6.8387,-15.5698 -0.03,-0.6306 -0.1542,-0.7156 -0.1542,-1.3911 h -9.5815 c 0,9.979 4.0337,17.9908 10.6223,24.613 l 2.1597,1.8583 c 2.4169,1.7925 3.4894,2.6067 6.4305,4.0782 4.1132,2.0579 8.6586,3.1349 13.2459,3.2951 h 2.4198 c 4.5487,-0.1587 9.0714,-1.2074 13.1884,-3.086 1.901,-0.8674 4.6693,-2.4524 6.2848,-3.7603 0.4075,-0.3299 0.7134,-0.5891 1.1082,-0.9008 1.9235,-1.5187 3.5121,-3.2292 5.0305,-5.1691 l 3.9509,-6.2489 c 2.7377,-6.1915 3.2472,-9.1982 3.2472,-16.225 0,-7.422 -3.2565,-13.9894 -7.2189,-19.3621 -2.2011,-2.9845 -6.7327,-6.8182 -9.9857,-8.5591 -4.7738,-2.5549 -9.9964,-4.3779 -16.3304,-4.3779 v -11.4361 z"
         style="fill:#ffffff;fill-rule:evenodd"
         id="path36"
         inkscape:connector-curvature="0" />
    </g>
  </g>
  <g
     id="Layer1008"
     transform="matrix(0.40047853,0,0,0.39186005,842.61829,379.87113)">
    <path
       d="m -1190.5513,78.5916 a 61.4404,61.4398 0 0 1 61.4403,61.4398 61.4404,61.4398 0 1 1 -61.4403,-61.4398 z"
       style="fill:#2c49a6;fill-rule:evenodd"
       id="path40"
       inkscape:connector-curvature="0" />
    <path
       d="m -1190.5845,84.1408 a 61.4072,58.6652 0 0 1 61.4072,58.6652 61.4072,58.6652 0 1 1 -61.4072,-58.6652 z"
       style="fill:#547bcf;fill-rule:evenodd"
       id="path42"
       inkscape:connector-curvature="0" />
    <text
       x="-1213.5016"
       y="177.61749"
       id="text46">
      <tspan
         font-size="86.5000"
         id="tspan44"
         style="font-size:86.5px;font-family:'Facebook Letter Faces';fill:#536ca9">f</tspan>
    </text>
    <text
       x="-1207.1174"
       y="174.1808"
       id="text50">
      <tspan
         font-size="86.5000"
         id="tspan48"
         style="font-size:86.5px;font-family:'Facebook Letter Faces';fill:#ffffff">f</tspan>
    </text>
  </g>
  <g
     id="Layer1009"
     transform="matrix(0.40047853,0,0,0.39186005,842.61829,379.87113)">
    <path
       d="m -1190.5513,-261.5659 a 61.4404,61.4398 0 0 1 61.4404,61.4398 61.4404,61.4398 0 1 1 -61.4404,-61.4398 z"
       style="fill:#8d41a5;fill-rule:evenodd"
       id="path53"
       inkscape:connector-curvature="0" />
    <path
       d="m -1190.5845,-256.0167 a 61.4072,58.6652 0 0 1 61.4072,58.6652 61.4072,58.6652 0 1 1 -61.4072,-58.6652 z"
       style="fill:#9a59b5;fill-rule:evenodd"
       id="path55"
       inkscape:connector-curvature="0" />
    <path
       d="m -1160.7351,-201.9499 h -5.1761 c -0.6751,-2.5941 -1.7158,-5.0913 -3.0566,-7.3574 l 3.6716,-3.6801 c 1.1131,-1.113 1.1131,-2.9216 0,-4.0346 l -6.0454,-6.0474 c -1.1127,-1.1128 -2.9174,-1.114 -4.0299,-9e-4 l -3.6887,3.6709 c -2.2661,-1.3404 -4.7633,-2.3823 -7.3574,-3.0565 v -5.1764 c 0,-1.574 -1.2413,-2.8499 -2.815,-2.8499 h -8.5495 c -1.5738,0 -2.815,1.2759 -2.815,2.8499 v 5.1764 c -2.5941,0.6745 -5.0914,1.7155 -7.3574,3.0563 l -3.6802,-3.6713 c -1.1131,-1.1133 -2.9216,-1.1133 -4.0346,0 l -6.0475,6.0453 c -1.1128,1.1125 -1.1139,2.9172 -9e-4,4.0296 l 3.671,3.689 c -1.341,2.2658 -2.3824,4.763 -3.0566,7.3571 h -5.1764 c -1.574,0 -2.8499,1.2412 -2.8499,2.815 v 8.5494 c 0,1.5738 1.2759,2.815 2.8496,2.815 h 5.1767 c 0.6745,2.5941 1.7156,5.0914 3.0563,7.3574 l -3.6719,3.6801 c -1.1127,1.1128 -1.1127,2.9216 0,4.034 l 6.0454,6.0475 c 1.113,1.1133 2.9172,1.1145 4.0302,0.001 l 3.6888,-3.6709 c 2.266,1.3404 4.7633,2.3817 7.3574,3.0568 v 5.1761 c 0,1.574 1.2412,2.8499 2.815,2.8499 h 8.5495 c 1.5737,0 2.815,-1.2759 2.815,-2.8496 v -5.1764 c 2.5941,-0.6751 5.0913,-1.7158 7.3574,-3.0562 l 3.6802,3.6712 c 1.1127,1.1134 2.9215,1.1134 4.034,0 l 6.0475,-6.0453 c 1.1133,-1.1128 1.1145,-2.9172 0,-4.0299 l -3.671,-3.6887 c 1.3405,-2.266 2.3818,-4.7633 3.0569,-7.3574 h 5.1761 c 1.5741,0 2.8499,-1.2412 2.8499,-2.815 v -8.5494 c 0,-1.5738 -1.2758,-2.815 -2.8499,-2.815 z m -32.7723,21.3384 c -7.8697,0 -14.2488,-6.3794 -14.2488,-14.2487 0,-7.8696 6.3791,-14.2487 14.2488,-14.2487 7.8697,0 14.2488,6.3791 14.2488,14.2487 0,7.8696 -6.3791,14.2487 -14.2488,14.2487 z"
       style="fill:#763599;fill-rule:evenodd"
       id="path57"
       inkscape:connector-curvature="0" />
    <path
       d="m -1158.0537,-211.2548 h -4.7734 c -0.6226,-2.3923 -1.5825,-4.6954 -2.8189,-6.7851 l 3.386,-3.394 c 1.0265,-1.0264 1.0265,-2.6943 0,-3.7208 l -5.5752,-5.5771 c -1.0262,-1.0261 -2.6905,-1.0272 -3.7165,-8e-4 l -3.4018,3.3855 c -2.0898,-1.2362 -4.3929,-2.1971 -6.7852,-2.8189 v -4.7737 c 0,-1.4516 -1.1447,-2.6283 -2.5961,-2.6283 h -7.8845 c -1.4514,0 -2.5961,1.1767 -2.5961,2.6283 v 4.7737 c -2.3923,0.6221 -4.6954,1.5822 -6.7852,2.8186 l -3.3939,-3.3857 c -1.0265,-1.0268 -2.6944,-1.0268 -3.7208,0 l -5.5772,5.5752 c -1.0262,1.0259 -1.0273,2.6902 -8e-4,3.7161 l 3.3855,3.4021 c -1.2367,2.0895 -2.1971,4.3926 -2.8189,6.7849 h -4.7738 c -1.4516,0 -2.6282,1.1447 -2.6282,2.596 v 7.8845 c 0,1.4514 1.1766,2.5961 2.628,2.5961 h 4.774 c 0.6221,2.3923 1.5822,4.6953 2.8186,6.7851 l -3.3863,3.394 c -1.0262,1.0261 -1.0262,2.6943 0,3.7202 l 5.5752,5.5771 c 1.0265,1.0267 2.6903,1.0278 3.7168,0.001 l 3.4018,-3.3855 c 2.0898,1.2362 4.3929,2.1965 6.7852,2.8191 v 4.7735 c 0,1.4516 1.1447,2.6283 2.5961,2.6283 h 7.8845 c 1.4514,0 2.5961,-1.1767 2.5961,-2.628 v -4.7738 c 2.3923,-0.6226 4.6954,-1.5824 6.7852,-2.8186 l 3.3939,3.3858 c 1.0262,1.0267 2.6944,1.0267 3.7203,0 l 5.5771,-5.5752 c 1.0268,-1.0262 1.0279,-2.6902 0,-3.7164 l -3.3855,-3.4019 c 1.2362,-2.0898 2.1966,-4.3928 2.8192,-6.7851 h 4.7734 c 1.4517,0 2.6283,-1.1447 2.6283,-2.5961 v -7.8845 c 0,-1.4513 -1.1766,-2.596 -2.6283,-2.596 z m -30.2234,19.6788 c -7.2575,0 -13.1405,-5.8832 -13.1405,-13.1405 0,-7.2576 5.883,-13.1405 13.1405,-13.1405 7.2576,0 13.1406,5.8829 13.1406,13.1405 0,7.2575 -5.883,13.1405 -13.1406,13.1405 z"
       style="fill:#ffffff;fill-rule:evenodd"
       id="path59"
       inkscape:connector-curvature="0" />
  </g>
  <g
     id="Layer1010"
     transform="matrix(0.40047853,0,0,0.39186005,842.61829,379.87113)">
    <path
       d="m -850.3936,-261.5666 a 61.439,61.4405 0 0 1 61.439,61.4405 61.439,61.4405 0 1 1 -61.439,-61.4405 z"
       style="fill:#2db165;fill-rule:evenodd"
       id="path62"
       inkscape:connector-curvature="0" />
    <path
       d="m -850.4268,-256.0173 a 61.4058,58.6658 0 0 1 61.4058,58.6658 61.4058,58.6658 0 1 1 -61.4058,-58.6658 z"
       style="fill:#45d37d;fill-rule:evenodd"
       id="path64"
       inkscape:connector-curvature="0" />
    <g
       id="Layer1011">
      <path
         d="m -850.7084,-170.3356 c 0.9966,0.8094 2.014,1.0663 3.27,0.4954 1.988,-0.904 1.4799,-3.5455 1.4454,-5.4565 -0.2558,-14.1451 -0.092,-28.5125 -0.0975,-42.6816 0,-3.3742 0.0324,-6.7495 0.0277,-10.1233 -0.004,-2.6427 -2.9118,-3.3912 -4.9343,-1.7538 -1.9251,1.5591 -3.9642,3.4447 -5.8363,5.084 -1.4892,1.3041 -2.9892,2.5958 -4.4871,3.8901 -1.3396,1.0267 -2.6708,2.3969 -4.0504,3.5639 -5.3239,4.5027 -2.8321,3.4415 -11.1775,3.4415 -1.3701,0.009 -10.6292,-0.0679 -11.1409,0.1526 -2.1435,0.9236 -1.6885,2.5695 -1.6788,4.5171 0.0119,2.3924 -0.0827,20.0825 0.1069,20.7964 1.131,2.6698 6.4626,1.9728 8.8403,1.9595 1.0663,-0.006 10.3607,-0.0428 10.5844,0.0112 1.5066,0.3599 16.6881,14.099 19.1281,16.1035 z m 24.1078,-57.8553 c 0,2.2616 0.1507,1.9594 1.4795,3.6976 8.7128,11.4031 10.2098,26.8857 4.8321,40.3806 -2.1086,5.2903 -6.3116,9.8711 -6.3116,11.353 0,1.5495 1.3161,3.0458 2.741,3.0458 3.3253,0 7.4466,-8.9145 8.7329,-11.6734 2.2965,-4.9282 3.5424,-10.7941 3.754,-16.7491 v -3.6645 c -0.2101,-5.9076 -1.4349,-11.7307 -3.6594,-16.6393 -1.0186,-2.2487 -2.0914,-4.5429 -3.4651,-6.5855 -2.6486,-3.9369 -2.8371,-5.2969 -5.9713,-5.2969 -0.8485,0 -2.1321,1.2834 -2.1321,2.1317 z m -0.9137,26.4975 c 0,6.9036 -0.7287,11.5106 -4.2457,17.3784 -0.6098,1.017 -2.1505,2.9591 -2.1505,4.2458 0,1.7451 2.6649,6.0568 6.7636,-0.5463 0.3201,-0.5151 0.4473,-0.8213 0.7571,-1.3748 11.6497,-20.828 -1.5386,-41.0227 -4.1702,-41.0227 -1.1518,0 -2.4108,-0.1665 -3.2212,1.6779 -0.4915,1.1174 -0.3273,1.8532 0.2226,2.8287 0.4116,0.73 1.0269,1.5138 1.4795,2.1901 0.5961,0.89 0.8794,1.4624 1.4188,2.5403 1.4996,2.9978 3.146,7.7777 3.146,12.0826 z m -10.9642,1.218 c 0,9.0044 -3.35,9.1436 -3.35,13.0966 0,1.7116 3.8244,3.9157 5.7961,0.01 3.6425,-7.2157 4.6421,-14.2498 1.6048,-22.0303 -3.6074,-9.2403 -7.1908,-5.0586 -7.548,-3.3861 -0.5383,2.5208 3.4971,4.6202 3.4971,12.3101 z"
         style="fill:#3aab67;fill-rule:evenodd"
         id="path66"
         inkscape:connector-curvature="0" />
      <path
         d="m -848.3183,-178.4845 c 0.9105,0.7395 1.84,0.9742 2.9875,0.4526 1.8162,-0.8259 1.3521,-3.2391 1.3206,-4.985 -0.2338,-12.9228 -0.0841,-26.0489 -0.0892,-38.9936 0,-3.0827 0.0296,-6.1663 0.0254,-9.2486 -0.004,-2.4144 -2.6602,-3.0981 -4.508,-1.6022 -1.7587,1.4244 -3.6217,3.147 -5.332,4.6447 -1.3605,1.1914 -2.7309,2.3714 -4.0994,3.554 -1.2239,0.938 -2.44,2.1897 -3.7004,3.2559 -4.8638,4.1136 -2.5874,3.1441 -10.2117,3.1441 -1.2517,0.008 -9.7108,-0.062 -10.1782,0.1394 -1.9583,0.8438 -1.5427,2.3475 -1.5338,4.1268 0.0109,2.1857 -0.0756,18.3472 0.0977,18.9995 1.0332,2.4391 5.9042,1.8023 8.0765,1.7901 0.9741,-0.006 9.4654,-0.039 9.6698,0.0103 1.3764,0.3288 15.2461,12.8807 17.4752,14.712 z m 22.0248,-52.8562 c 0,2.0662 0.1376,1.7902 1.3516,3.3781 7.96,10.4178 9.3277,24.5627 4.4146,36.8914 -1.9264,4.8332 -5.7662,9.0182 -5.7662,10.372 0,1.4157 1.2024,2.7827 2.5042,2.7827 3.0379,0 6.8031,-8.1442 7.9783,-10.6647 2.098,-4.5024 3.2363,-9.8614 3.4296,-15.3019 v -3.3479 c -0.192,-5.3971 -1.3109,-10.717 -3.3432,-15.2015 -0.9306,-2.0544 -1.9107,-4.1504 -3.1657,-6.0165 -2.4198,-3.5967 -2.592,-4.8392 -5.4554,-4.8392 -0.7752,0 -1.9478,1.1725 -1.9478,1.9475 z m -0.8348,24.2079 c 0,6.3071 -0.6657,10.5161 -3.8788,15.8768 -0.5572,0.9291 -1.9647,2.7034 -1.9647,3.879 0,1.5943 2.4346,5.5334 6.1791,-0.4992 0.2925,-0.4705 0.4087,-0.7502 0.6917,-1.256 10.6432,-19.0283 -1.4056,-37.4779 -3.8098,-37.4779 -1.0522,0 -2.2025,-0.1522 -2.9429,1.5328 -0.449,1.0209 -0.299,1.6931 0.2034,2.5843 0.376,0.667 0.9382,1.383 1.3517,2.0009 0.5445,0.8131 0.8034,1.336 1.2961,2.3208 1.3701,2.7387 2.8742,7.1056 2.8742,11.0385 z m -10.0168,1.1128 c 0,8.2263 -3.0605,8.3535 -3.0605,11.9649 0,1.5638 3.494,3.5774 5.2953,0.009 3.3277,-6.5922 4.2409,-13.0185 1.4661,-20.1267 -3.2957,-8.4419 -6.5695,-4.6215 -6.8958,-3.0935 -0.4918,2.303 3.1949,4.2209 3.1949,11.2464 z"
         style="fill:#ffffff;fill-rule:evenodd"
         id="path68"
         inkscape:connector-curvature="0" />
    </g>
  </g>
  <g
     id="Layer1012"
     transform="matrix(0.40047853,0,0,0.39186005,842.61829,379.87113)">
    <path
       d="m -1870.866,78.5914 a 61.439,61.4399 0 0 1 61.439,61.44 61.439,61.4399 0 1 1 -61.439,-61.44 z"
       style="fill:#2f8079;fill-rule:evenodd"
       id="path72"
       inkscape:connector-curvature="0" />
    <path
       d="m -1870.8991,84.1407 a 61.4058,58.6653 0 0 1 61.4058,58.6653 61.4058,58.6653 0 1 1 -61.4058,-58.6653 z"
       style="fill:#269881;fill-rule:evenodd"
       id="path74"
       inkscape:connector-curvature="0" />
    <g
       id="Layer1013">
      <path
         d="m -1867.5649,150.58 c -2.9252,-3.1755 -5.3831,-5.1291 -7.9538,-7.7852 -0.4142,-0.4278 -0.6482,-0.8148 -1.0645,-1.2445 -0.7532,-0.7783 -1.4642,-1.3908 -2.2552,-2.1444 -1.4768,-1.4398 -13.5886,-13.4661 -14.1765,-13.7117 -1.7101,-0.7143 -6.1769,-0.2487 -6.8262,2.2848 -0.6823,2.6615 -0.2932,9.7141 -0.2089,12.7804 0.025,2.5151 0.034,5.032 0.038,7.5476 0.032,1.5425 0.085,2.6582 0.1664,2.9944 0.652,2.6868 2.3359,2.507 4.2102,2.4946 4.3764,-0.0294 8.7584,0.011 13.1361,-0.002 3.3226,-0.01 2.3088,-0.1279 3.7853,1.0631 0.4577,0.3691 0.451,0.3263 0.8803,0.7393 2.3005,2.0385 16.7593,15.1595 18.4516,15.4106 3.9928,0.592 4.8783,-7.3443 1.9398,-10.8457 -1.9118,-2.2785 -5.9148,-5.5609 -8.2526,-7.7161 -0.6394,-0.6148 -1.2518,-1.2298 -1.8705,-1.8649 z m -8.6856,-14.4681 0.4619,0.451 c 0.6781,0.638 1.0017,1.1333 1.6567,1.8105 3.3277,3.2557 6.6556,6.5115 9.9833,9.7672 2.9346,2.9159 17.7399,18.3553 20.6157,19.0816 1.3988,0.3533 2.369,-0.7831 1.9311,-2.4285 -0.8144,-3.0603 -6.9628,-7.8986 -9.318,-10.1009 -1.5219,-1.4226 -3.6933,-3.3743 -4.9584,-5.0019 -0.1154,-0.3392 -0.12,-0.6394 -0.1418,-0.9922 -0.09,-5.414 0.5441,-34.4664 -0.1279,-37.2241 -0.9036,-3.7083 -4.0373,-2.6069 -6.1104,-0.6231 -5.0258,4.8099 -10.6562,8.9515 -15.5723,13.7081 -0.5509,0.5418 -1.4541,1.3834 -2.134,1.5666 -2.4654,-2.2202 -13.4639,-14.3276 -15.6546,-14.7881 -2.1057,-0.4423 -3.9653,1.8021 -1.6177,4.1807 2.1892,2.218 4.9418,4.2947 7.3425,6.7541 3.0318,3.106 5.9234,6.2652 9.0176,9.329 1.5428,1.5025 3.0853,3.0054 4.6263,4.51 z"
         style="fill:#24736c;fill-rule:evenodd"
         id="path76"
         inkscape:connector-curvature="0" />
      <path
         d="m -1863.7522,144.7225 c -2.6209,-2.8451 -4.823,-4.5954 -7.1263,-6.9752 -0.371,-0.3833 -0.5807,-0.73 -0.9537,-1.115 -0.6748,-0.6973 -1.3118,-1.2461 -2.0205,-1.9213 -1.3232,-1.2899 -12.1748,-12.065 -12.7015,-12.285 -1.5321,-0.64 -5.5342,-0.2229 -6.116,2.0471 -0.6113,2.3845 -0.2626,8.7034 -0.1872,11.4506 0.022,2.2534 0.031,4.5084 0.035,6.7623 0.029,1.382 0.076,2.3817 0.149,2.6828 0.5842,2.4073 2.0929,2.2462 3.7722,2.2351 3.921,-0.0264 7.8471,0.01 11.7693,-0.002 2.977,-0.009 2.0686,-0.1147 3.3915,0.9524 0.4101,0.3307 0.404,0.2924 0.7887,0.6624 2.0612,1.8264 15.0155,13.5822 16.5318,13.8071 3.5773,0.5305 4.3707,-6.58 1.7379,-9.7172 -1.7128,-2.0414 -5.2994,-4.9823 -7.394,-6.9132 -0.5728,-0.5509 -1.1215,-1.1018 -1.6758,-1.6709 z m -7.7819,-12.9628 0.4138,0.4041 c 0.6076,0.5717 0.8975,1.0154 1.4844,1.6221 2.9814,2.917 5.9631,5.834 8.9445,8.751 2.6293,2.6125 15.8942,16.4455 18.4707,17.0962 1.2533,0.3166 2.1225,-0.7016 1.7302,-2.1758 -0.7296,-2.7419 -6.2383,-7.0768 -8.3485,-9.0499 -1.3635,-1.2746 -3.309,-3.0232 -4.4424,-4.4815 -0.1035,-0.3039 -0.1076,-0.5728 -0.1271,-0.8889 -0.081,-4.8507 0.4875,-30.8803 -0.1146,-33.3511 -0.8096,-3.3224 -3.6173,-2.3357 -5.4746,-0.5583 -4.503,4.3095 -9.5475,8.0202 -13.9521,12.2819 -0.4935,0.4854 -1.3028,1.2394 -1.912,1.4035 -2.2088,-1.9891 -12.063,-12.8368 -14.0258,-13.2494 -1.8865,-0.3963 -3.5527,1.6146 -1.4494,3.7457 1.9615,1.9873 4.4277,3.8479 6.5786,6.0514 2.7164,2.7828 5.3071,5.6133 8.0794,8.3583 1.3822,1.3462 2.7642,2.6927 4.1449,4.0407 z"
         style="fill:#ffffff;fill-rule:evenodd"
         id="path78"
         inkscape:connector-curvature="0" />
    </g>
  </g>
  <g
     id="Layer1014"
     transform="matrix(0.40047853,0,0,0.39186005,842.61829,379.87113)">
    <path
       d="m -1020.4723,248.6703 a 61.439,61.4398 0 0 1 61.439,61.4398 61.439,61.4398 0 1 1 -61.439,-61.4398 z"
       style="fill:#297fa2;fill-rule:evenodd"
       id="path82"
       inkscape:connector-curvature="0" />
    <path
       d="m -1020.5055,254.2195 a 61.4058,58.6652 0 0 1 61.4058,58.6652 61.4058,58.6652 0 1 1 -61.4058,-58.6652 z"
       style="fill:#3095c1;fill-rule:evenodd"
       id="path84"
       inkscape:connector-curvature="0" />
    <g
       id="Layer1015">
      <path
         d="m -1030.1249,275.7326 h 29.6821 l -19.0551,27.0301 17.5327,-0.3919 -41.4399,49.4707 12.7676,-33.1931 -15.47,0.1297 z"
         style="fill:#216c8a;fill-rule:evenodd"
         id="path86"
         inkscape:connector-curvature="0" />
      <path
         d="m -1022.4376,269.9371 h 26.4361 l -16.9712,24.0741 15.6153,-0.3491 -36.9081,44.0608 11.3713,-29.5632 -13.7782,0.1155 z"
         style="fill:#ffffff;fill-rule:evenodd"
         id="path88"
         inkscape:connector-curvature="0" />
    </g>
  </g>
  <g
     id="Layer1016"
     transform="matrix(0.40047853,0,0,0.39186005,842.61829,379.87113)">
    <path
       d="m -1700.7874,78.5917 c 33.9328,0 61.4403,27.5072 61.4403,61.4398 0,19.0551 -8.6754,36.0832 -22.2908,47.3526 h -78.2989 c -13.6154,-11.2694 -22.2908,-28.2975 -22.2908,-47.3526 0,-33.9326 27.5075,-61.4398 61.4402,-61.4398 z"
       style="fill:#028d4a;fill-rule:evenodd"
       id="path92"
       inkscape:connector-curvature="0" />
    <path
       d="m -1700.8204,84.1408 a 61.4072,58.6652 0 0 1 61.4072,58.6652 61.4072,58.6652 0 1 1 -61.4072,-58.6652 z"
       style="fill:#52b549;fill-rule:evenodd"
       id="path94"
       inkscape:connector-curvature="0" />
    <g
       id="Layer1017">
      <path
         d="m -1704.0797,123.8286 a 33.5521,19.8275 0 0 1 33.552,19.8275 33.5521,19.8275 0 1 1 -33.552,-19.8275 z"
         style="fill:#009a48;fill-rule:evenodd"
         id="path96"
         inkscape:connector-curvature="0" />
      <path
         d="m -1730.7031,175.0878 49.3487,-26.5367 -33.2245,3.0503 z"
         style="fill:#009a48;fill-rule:evenodd"
         id="path98"
         inkscape:connector-curvature="0" />
    </g>
    <g
       id="Layer1018">
      <path
         d="m -1699.6892,117.2628 a 31.4335,18.5755 0 0 1 31.4335,18.5755 31.4335,18.5755 0 1 1 -31.4335,-18.5755 z"
         style="fill:#ffffff;fill-rule:evenodd"
         id="path101"
         inkscape:connector-curvature="0" />
      <path
         d="m -1724.6315,165.2853 46.2327,-24.8612 -31.1267,2.8578 z"
         style="fill:#ffffff;fill-rule:evenodd"
         id="path103"
         inkscape:connector-curvature="0" />
    </g>
  </g>
  <g
     id="Layer1019"
     transform="matrix(0.40047853,0,0,0.39186005,842.61829,379.87113)">
    <path
       d="m -1020.4725,78.5915 c 33.9328,0 61.4402,27.5074 61.4402,61.44 0,19.0551 -8.6753,36.0832 -22.2907,47.3527 h -78.2989 c -13.6154,-11.2695 -22.2908,-28.2976 -22.2908,-47.3527 0,-33.9326 27.5075,-61.44 61.4402,-61.44 z"
       style="fill:#1a4669;fill-rule:evenodd"
       id="path107"
       inkscape:connector-curvature="0" />
    <path
       d="m -1020.5055,84.1406 a 61.4072,58.6653 0 0 1 61.4072,58.6654 61.4072,58.6653 0 1 1 -61.4072,-58.6654 z"
       style="fill:#2d5d85;fill-rule:evenodd"
       id="path109"
       inkscape:connector-curvature="0" />
    <g
       id="Layer1020">
      <g
         id="Layer1021">
        <path
           d="m -1003.5562,119.6887 h -41.5652 c -3.8725,0 -7.011,3.1387 -7.011,7.0109 v 42.0656 c 0,3.8724 3.1385,7.0111 7.011,7.0111 h 41.5652 c 3.8718,0 7.0109,-3.1387 7.0109,-7.0111 v -42.0656 c 0,-3.8722 -3.1391,-7.0109 -7.0109,-7.0109 z m 0.7508,46.9542 v 0 c 0,1.5875 -1.2871,2.8736 -2.8738,2.8736 h -37.0696 c -1.5868,0 -2.8733,-1.2861 -2.8733,-2.8736 v -37.8003 c 0,-1.587 1.2865,-2.8736 2.8733,-2.8736 h 37.0696 c 1.5867,0 2.8738,1.2866 2.8738,2.8736 z"
           style="fill:#225075;fill-rule:evenodd"
           id="path111"
           inkscape:connector-curvature="0" />
        <path
           d="m -1014.1943,142.4742 c 0.8195,1.5767 1.2911,3.3618 1.2911,5.2583 0,6.3057 -5.1301,11.4357 -11.4356,11.4357 -6.3062,0 -11.4371,-5.13 -11.4371,-11.4357 0,-1.8965 0.471,-3.6816 1.2912,-5.2583 h -6.3962 c -0.529,1.6599 -0.8186,3.4253 -0.8186,5.2583 0,9.5725 7.7875,17.36 17.3607,17.36 9.5724,0 17.3599,-7.7875 17.3599,-17.36 0,-1.833 -0.2901,-3.5984 -0.8187,-5.2583 z"
           style="fill:#225075;fill-rule:evenodd"
           id="path113"
           inkscape:connector-curvature="0" />
        <path
           d="m -1005.6792,136.298 h -4.3523 c -1.5865,0 -2.8738,-1.286 -2.8738,-2.8735 v -4.7488 c 0,-1.2602 0.817,-2.3195 1.9456,-2.7067 h -31.7891 c -1.5868,0 -2.8733,1.2866 -2.8733,2.8736 v 13.6316 h 11.1374 c 1.9077,-3.6653 5.7354,-6.1785 10.1459,-6.1785 4.4091,0 8.2374,2.5132 10.1445,6.1785 h 11.3889 v -9.0497 c 0,1.5875 -1.2871,2.8735 -2.8738,2.8735 z"
           style="fill:#225075;fill-rule:evenodd"
           id="path115"
           inkscape:connector-curvature="0" />
        <path
           d="m -1003.5562,119.6886 h -41.5652 c -3.8724,0 -7.0111,3.1388 -7.0111,7.011 v 42.0659 c 0,3.8723 3.1387,7.0109 7.0111,7.0109 h 41.5652 c 3.8721,0 7.0109,-3.1386 7.0109,-7.0109 v -42.0659 c 0,-3.8722 -3.1388,-7.011 -7.0109,-7.011 z m -9.3468,28.0438 v 0 c 0,6.3059 -5.1303,11.4362 -11.4358,11.4362 -6.3064,0 -11.4369,-5.1303 -11.4369,-11.4362 0,-1.8964 0.471,-3.6812 1.2909,-5.2582 1.9079,-3.6657 5.7357,-6.1785 10.146,-6.1785 4.4091,0 8.2374,2.5128 10.1446,6.1785 0.8197,1.577 1.2912,3.3618 1.2912,5.2582 z m 10.0978,18.9105 v 0 c 0,1.5875 -1.2873,2.8737 -2.8735,2.8737 h -37.07 c -1.5869,0 -2.8736,-1.2862 -2.8736,-2.8737 v -24.1687 h 4.7414 c -0.5288,1.6599 -0.8186,3.4253 -0.8186,5.2582 0,9.5726 7.7876,17.3602 17.3607,17.3602 9.5724,0 17.36,-7.7876 17.36,-17.3602 0,-1.8329 -0.2904,-3.5983 -0.8187,-5.2582 h 4.9923 z m 0,-33.218 v 0 c 0,1.5866 -1.2873,2.8738 -2.8735,2.8738 h -4.3528 c -1.5865,0 -2.8733,-1.2872 -2.8733,-2.8738 v -4.7497 c 0,-1.2595 0.8165,-2.3189 1.9454,-2.7063 h 5.2807 c 1.5862,0 2.8735,1.2864 2.8735,2.8738 z"
           style="fill:#225075;fill-rule:evenodd"
           id="path117"
           inkscape:connector-curvature="0" />
      </g>
      <g
         id="Layer1022">
        <path
           d="m -1000.3024,113.1594 h -38.1566 c -3.5549,0 -6.436,2.8813 -6.436,6.436 v 38.616 c 0,3.5548 2.8811,6.4361 6.436,6.4361 h 38.1566 c 3.5544,0 6.436,-2.8813 6.436,-6.4361 v -38.616 c 0,-3.5547 -2.8816,-6.436 -6.436,-6.436 z m 0.6893,43.1037 v 0 c 0,1.4573 -1.1816,2.6379 -2.6382,2.6379 h -34.0296 c -1.4567,0 -2.6377,-1.1806 -2.6377,-2.6379 v -34.7005 c 0,-1.4569 1.181,-2.6379 2.6377,-2.6379 h 34.0296 c 1.4566,0 2.6382,1.181 2.6382,2.6379 z"
           style="fill:#ffffff;fill-rule:evenodd"
           id="path120"
           inkscape:connector-curvature="0" />
        <path
           d="m -1010.0681,134.0764 c 0.7523,1.4474 1.1853,3.0861 1.1853,4.8271 0,5.7885 -4.7095,10.4978 -10.4979,10.4978 -5.789,0 -10.4991,-4.7093 -10.4991,-10.4978 0,-1.741 0.4323,-3.3797 1.1853,-4.8271 h -5.8717 c -0.4856,1.5237 -0.7515,3.1444 -0.7515,4.8271 0,8.7875 7.1489,15.9363 15.937,15.9363 8.7874,0 15.9363,-7.1488 15.9363,-15.9363 0,-1.6827 -0.2663,-3.3034 -0.7515,-4.8271 z"
           style="fill:#ffffff;fill-rule:evenodd"
           id="path122"
           inkscape:connector-curvature="0" />
        <path
           d="m -1002.2513,128.4067 h -3.9953 c -1.4564,0 -2.6382,-1.1806 -2.6382,-2.6379 v -4.3593 c 0,-1.1569 0.75,-2.1294 1.7861,-2.4848 h -29.1822 c -1.4567,0 -2.6377,1.181 -2.6377,2.6379 v 12.5138 h 10.2241 c 1.7512,-3.3647 5.265,-5.6718 9.3138,-5.6718 4.0476,0 7.5619,2.3071 9.3126,5.6718 h 10.455 v -8.3076 c 0,1.4573 -1.1816,2.6379 -2.6382,2.6379 z"
           style="fill:#ffffff;fill-rule:evenodd"
           id="path124"
           inkscape:connector-curvature="0" />
        <path
           d="m -1000.3024,113.1593 h -38.1566 c -3.5548,0 -6.4361,2.8814 -6.4361,6.4361 v 38.6162 c 0,3.5547 2.8813,6.436 6.4361,6.436 h 38.1566 c 3.5546,0 6.436,-2.8813 6.436,-6.436 v -38.6162 c 0,-3.5547 -2.8814,-6.4361 -6.436,-6.4361 z m -8.5803,25.744 v 0 c 0,5.7888 -4.7096,10.4984 -10.498,10.4984 -5.7892,0 -10.4989,-4.7096 -10.4989,-10.4984 0,-1.7408 0.4323,-3.3793 1.185,-4.8269 1.7514,-3.3651 5.2653,-5.6718 9.3139,-5.6718 4.0476,0 7.5619,2.3067 9.3127,5.6718 0.7525,1.4476 1.1853,3.0861 1.1853,4.8269 z m 9.2697,17.3598 v 0 c 0,1.4573 -1.1817,2.638 -2.6378,2.638 h -34.0301 c -1.4567,0 -2.6379,-1.1807 -2.6379,-2.638 v -22.1867 h 4.3526 c -0.4854,1.5237 -0.7515,3.1444 -0.7515,4.8269 0,8.7877 7.149,15.9367 15.937,15.9367 8.7874,0 15.9365,-7.149 15.9365,-15.9367 0,-1.6825 -0.2666,-3.3032 -0.7516,-4.8269 h 4.5828 z m 0,-30.494 v 0 c 0,1.4566 -1.1817,2.6382 -2.6378,2.6382 h -3.9958 c -1.4564,0 -2.6377,-1.1816 -2.6377,-2.6382 v -4.3601 c 0,-1.1563 0.7495,-2.1287 1.7858,-2.4844 h 4.8477 c 1.4561,0 2.6378,1.1809 2.6378,2.6381 z"
           style="fill:#ffffff;fill-rule:evenodd"
           id="path126"
           inkscape:connector-curvature="0" />
      </g>
    </g>
  </g>
  <g
     id="Layer1023"
     transform="matrix(0.40047853,0,0,0.39186005,842.61829,379.87113)">
    <path
       d="m -1020.4727,-91.4872 c 33.9327,0 61.4402,27.5073 61.4402,61.4399 0,19.0552 -8.6754,36.0833 -22.2908,47.3528 h -78.2989 c -13.6154,-11.2695 -22.2907,-28.2976 -22.2907,-47.3528 0,-33.9326 27.5074,-61.4399 61.4402,-61.4399 z"
       style="fill:#a5abae;fill-rule:evenodd"
       id="path131"
       inkscape:connector-curvature="0" />
    <path
       d="m -1020.5058,-85.9381 a 61.4072,58.6653 0 0 1 61.4072,58.6653 61.4072,58.6653 0 1 1 -61.4072,-58.6653 z"
       style="fill:#ccd0d2;fill-rule:evenodd"
       id="path133"
       inkscape:connector-curvature="0" />
    <g
       id="Layer1024">
      <path
         d="m -1032.4444,-58.2286 c -3.7817,0.5545 -8.0955,5.0126 -8.0612,8.9352 0.025,2.863 1.1502,3.7613 3.002,5.6088 l 17.0267,17.082 c 3.0257,2.9993 3.6493,2.9435 2.0962,4.2858 -2.7615,2.3866 -5.9008,5.812 -8.546,8.4571 -2.8576,2.8576 -5.7113,5.7193 -8.573,8.5727 -3.0627,3.0539 -7.0279,6.5774 -4.1076,11.3102 2.2202,3.5983 6.542,6.9475 10.8548,4.9141 2.0396,-0.9616 21.5065,-20.9479 25.8116,-25.253 3.383,-3.3829 6.9175,-5.6638 5.7366,-11.131 -0.5496,-2.5451 -5.8227,-7.1039 -7.8342,-9.1154 l -21.4269,-21.4375 c -1.8032,-1.8375 -3.3518,-2.6143 -5.979,-2.229 z"
         style="fill:#afb6b9;fill-rule:evenodd"
         id="path135"
         inkscape:connector-curvature="0" />
      <path
         d="m -1026.4867,-63.2305 c -3.3373,0.4893 -7.1443,4.4237 -7.1141,7.8854 0.022,2.5266 1.0151,3.3193 2.6493,4.9498 l 15.0262,15.0749 c 2.6702,2.6469 3.2206,2.5977 1.8499,3.7823 -2.4371,2.1062 -5.2075,5.1291 -7.5419,7.4635 -2.5219,2.5219 -5.0402,5.0473 -7.5657,7.5655 -2.7029,2.695 -6.2022,5.8046 -3.625,9.9813 1.9593,3.1756 5.7734,6.1312 9.5794,4.3367 1.8,-0.8486 18.9797,-18.4866 22.779,-22.2859 2.9855,-2.9855 6.1047,-4.9984 5.0626,-9.8232 -0.4851,-2.2461 -5.1386,-6.2693 -6.9138,-8.0445 l -18.9094,-18.9187 c -1.5913,-1.6216 -2.9579,-2.3071 -5.2765,-1.9671 z"
         style="fill:#ffffff;fill-rule:evenodd"
         id="path137"
         inkscape:connector-curvature="0" />
    </g>
  </g>
  <g
     id="Layer1025"
     transform="matrix(0.40047853,0,0,0.39186005,842.61829,379.87113)">
    <path
       d="m -1190.5514,-91.4871 c -33.9328,0 -61.4403,27.5073 -61.4403,61.4399 0,19.055 8.6754,36.0831 22.2908,47.3526 h 78.2989 c 13.6154,-11.2695 22.2908,-28.2976 22.2908,-47.3526 0,-33.9326 -27.5075,-61.4399 -61.4402,-61.4399 z"
       style="fill:#a5abae;fill-rule:evenodd"
       id="path141"
       inkscape:connector-curvature="0" />
    <path
       d="m -1190.5184,-85.9379 a 61.4072,58.6652 0 0 0 -61.4072,58.6651 61.4072,58.6652 0 1 0 61.4072,-58.6651 z"
       style="fill:#ccd0d2;fill-rule:evenodd"
       id="path143"
       inkscape:connector-curvature="0" />
    <path
       d="m -1185.5485,-56.4269 c 3.7817,0.5545 8.0955,5.0127 8.0613,8.9353 -0.025,2.863 -1.1502,3.7612 -3.0021,5.6087 l -17.0266,17.082 c -3.0258,2.9993 -3.6494,2.9435 -2.0962,4.2858 2.7615,2.3866 5.9008,5.812 8.5459,8.4571 2.8577,2.8576 5.7113,5.7192 8.5731,8.5727 3.0626,3.0538 7.0278,6.5773 4.1076,11.3101 -2.2203,3.5984 -6.5421,6.9475 -10.8548,4.9141 -2.0396,-0.9616 -21.5066,-20.9478 -25.8116,-25.2529 -3.383,-3.3829 -6.9175,-5.6638 -5.7367,-11.131 0.5497,-2.5451 5.8228,-7.1039 7.8343,-9.1154 l 21.4268,-21.4374 c 1.8033,-1.8375 3.3518,-2.6143 5.979,-2.2291 z"
       style="fill:#afb6b9;fill-rule:evenodd"
       id="path145"
       inkscape:connector-curvature="0" />
    <path
       d="m -1184.5375,-63.2304 c 3.3374,0.4893 7.1443,4.4237 7.1141,7.8854 -0.022,2.5266 -1.015,3.3193 -2.6493,4.9497 l -15.0262,15.075 c -2.6702,2.6469 -3.2205,2.5976 -1.8499,3.7822 2.4371,2.1062 5.2075,5.1291 7.5419,7.4635 2.5219,2.5219 5.0403,5.0473 7.5658,7.5654 2.7028,2.6951 6.2021,5.8046 3.625,9.9813 -1.9594,3.1756 -5.7734,6.1313 -9.5795,4.3368 -1.7999,-0.8487 -18.9797,-18.4866 -22.7789,-22.2859 -2.9855,-2.9855 -6.1047,-4.9984 -5.0627,-9.8232 0.4851,-2.2461 5.1387,-6.2693 6.9138,-8.0444 l 18.9094,-18.9187 c 1.5914,-1.6216 2.958,-2.3071 5.2765,-1.9671 z"
       style="fill:#ffffff;fill-rule:evenodd"
       id="path147"
       inkscape:connector-curvature="0" />
  </g>
  <g
     id="Layer1026"
     transform="matrix(0.40047853,0,0,0.39186005,842.61829,379.87113)">
    <path
       d="m -850.3937,78.5915 c 33.9327,0 61.4402,27.5074 61.4402,61.44 0,19.0551 -8.6754,36.0833 -22.2908,47.3527 h -78.2989 c -13.6154,-11.2694 -22.2908,-28.2976 -22.2908,-47.3527 0,-33.9326 27.5075,-61.44 61.4403,-61.44 z"
       style="fill:#82c1d4;fill-rule:evenodd"
       id="path150"
       inkscape:connector-curvature="0" />
    <path
       d="m -850.4268,84.1407 a 61.4072,58.6653 0 0 1 61.4072,58.6653 61.4072,58.6653 0 1 1 -61.4072,-58.6653 z"
       style="fill:#d1ecfb;fill-rule:evenodd"
       id="path152"
       inkscape:connector-curvature="0" />
    <g
       id="Layer1027">
      <g
         id="Layer1028">
        <g
           id="Layer1029">
          <path
             d="m -874.0428,117.298 a 6.7439,6.5114 0 0 1 6.744,6.5113 6.7439,6.5114 0 1 1 -6.744,-6.5113 z"
             style="fill:#a6dbeb;fill-rule:evenodd"
             id="path154"
             inkscape:connector-curvature="0" />
          <path
             d="m -860.9043,123.8085 v 0 q 0,6.5111 6.5111,6.5111 h 23.2549 q 6.5111,0 6.5111,-6.5111 v 0 q 0,-6.5111 -6.5111,-6.5111 h -23.2549 q -6.5111,0 -6.5111,6.5111 z"
             style="fill:#a6dbeb;fill-rule:evenodd"
             id="path156"
             inkscape:connector-curvature="0" />
        </g>
        <g
           id="Layer1030">
          <path
             d="m -874.0428,136.8312 a 6.7439,6.5114 0 0 1 6.744,6.5114 6.7439,6.5114 0 1 1 -6.744,-6.5114 z"
             style="fill:#a6dbeb;fill-rule:evenodd"
             id="path159"
             inkscape:connector-curvature="0" />
          <path
             d="m -860.9043,143.3418 v 0 q 0,6.5111 6.5111,6.5111 h 23.2549 q 6.5111,0 6.5111,-6.5111 v 0 q 0,-6.5111 -6.5111,-6.5111 h -23.2549 q -6.5111,0 -6.5111,6.5111 z"
             style="fill:#a6dbeb;fill-rule:evenodd"
             id="path161"
             inkscape:connector-curvature="0" />
        </g>
        <g
           id="Layer1031">
          <path
             d="m -874.0428,156.3645 a 6.7439,6.5114 0 0 1 6.744,6.5113 6.7439,6.5114 0 1 1 -6.744,-6.5113 z"
             style="fill:#a6dbeb;fill-rule:evenodd"
             id="path164"
             inkscape:connector-curvature="0" />
          <path
             d="m -860.9043,162.8751 v 0 q 0,6.511 6.5111,6.511 h 23.2549 q 6.5111,0 6.5111,-6.511 v 0 q 0,-6.5111 -6.5111,-6.5111 h -23.2549 q -6.5111,0 -6.5111,6.5111 z"
             style="fill:#a6dbeb;fill-rule:evenodd"
             id="path166"
             inkscape:connector-curvature="0" />
        </g>
      </g>
      <g
         id="Layer1032">
        <g
           id="Layer1033">
          <path
             d="m -868.8092,112.3512 a 6.3089,6.0913 0 0 1 6.3089,6.0913 6.3089,6.0913 0 1 1 -6.3089,-6.0913 z"
             style="fill:#ffffff;fill-rule:evenodd"
             id="path170"
             inkscape:connector-curvature="0" />
          <path
             d="m -856.5182,118.4418 v 0 q 0,6.0911 6.091,6.0911 h 21.7548 q 6.0911,0 6.0911,-6.0911 v 0 q 0,-6.0911 -6.0911,-6.0911 h -21.7548 q -6.091,0 -6.091,6.0911 z"
             style="fill:#ffffff;fill-rule:evenodd"
             id="path172"
             inkscape:connector-curvature="0" />
        </g>
        <g
           id="Layer1034">
          <path
             d="m -868.8092,130.6244 a 6.3089,6.0913 0 0 1 6.3089,6.0914 6.3089,6.0913 0 1 1 -6.3089,-6.0914 z"
             style="fill:#ffffff;fill-rule:evenodd"
             id="path175"
             inkscape:connector-curvature="0" />
          <path
             d="m -856.5182,136.715 v 0 q 0,6.0911 6.091,6.0911 h 21.7548 q 6.0911,0 6.0911,-6.0911 v 0 q 0,-6.0911 -6.0911,-6.0911 h -21.7548 q -6.091,0 -6.091,6.0911 z"
             style="fill:#ffffff;fill-rule:evenodd"
             id="path177"
             inkscape:connector-curvature="0" />
        </g>
        <g
           id="Layer1035">
          <path
             d="m -868.8092,148.8977 a 6.3089,6.0913 0 0 1 6.3089,6.0913 6.3089,6.0913 0 1 1 -6.3089,-6.0913 z"
             style="fill:#ffffff;fill-rule:evenodd"
             id="path180"
             inkscape:connector-curvature="0" />
          <path
             d="m -856.5182,154.9883 v 0 q 0,6.0911 6.091,6.0911 h 21.7548 q 6.0911,0 6.0911,-6.0911 v 0 q 0,-6.0911 -6.0911,-6.0911 h -21.7548 q -6.091,0 -6.091,6.0911 z"
             style="fill:#ffffff;fill-rule:evenodd"
             id="path182"
             inkscape:connector-curvature="0" />
        </g>
      </g>
    </g>
  </g>
  <g
     id="Layer1036"
     transform="matrix(0.40047853,0,0,0.39186005,842.61829,379.87113)">
    <path
       d="m -850.3936,248.6696 a 61.4404,61.4405 0 0 1 61.4403,61.4405 61.4404,61.4405 0 1 1 -61.4403,-61.4405 z"
       style="fill:#a82919;fill-rule:evenodd"
       id="path188"
       inkscape:connector-curvature="0" />
    <path
       d="m -850.4268,254.2189 a 61.4072,58.6658 0 0 1 61.4072,58.6659 61.4072,58.6658 0 1 1 -61.4072,-58.6659 z"
       style="fill:#d94735;fill-rule:evenodd"
       id="path190"
       inkscape:connector-curvature="0" />
    <g
       id="Layer1037">
      <g
         id="Layer1038">
        <text
           x="-880.3667"
           y="347.05869"
           id="text194">
          <tspan
             font-size="87.5000"
             id="tspan192"
             style="font-size:87.5px;font-family:Catull;fill:#a82919">g</tspan>
        </text>
        <text
           x="-836.63379"
           y="321.17731"
           id="text198">
          <tspan
             font-size="46.5000"
             id="tspan196"
             style="font-size:46.5px;font-family:Arial;fill:#a82919">+</tspan>
        </text>
      </g>
      <g
         id="Layer1039">
        <text
           x="-873.63379"
           y="339.39301"
           id="text203">
          <tspan
             font-size="80.0000"
             id="tspan201"
             style="font-size:80px;font-family:Catull;fill:#ffffff">g</tspan>
        </text>
        <text
           x="-833.56378"
           y="315.6795"
           id="text207">
          <tspan
             font-size="42.5000"
             id="tspan205"
             style="font-size:42.5px;font-family:Arial;fill:#ffffff">+</tspan>
        </text>
      </g>
    </g>
  </g>
  <g
     id="Layer1040"
     transform="matrix(0.40047853,0,0,0.39186005,842.61829,379.87113)">
    <path
       d="m -1190.5514,248.6704 c 33.9327,0 61.4402,27.5073 61.4402,61.4398 0,19.0551 -8.6754,36.0832 -22.2908,47.3527 h -78.2989 c -13.6154,-11.2695 -22.2908,-28.2976 -22.2908,-47.3527 0,-33.9325 27.5075,-61.4398 61.4403,-61.4398 z"
       style="fill:#00a1a2;fill-rule:evenodd"
       id="path212"
       inkscape:connector-curvature="0" />
    <path
       d="m -1190.5845,254.2195 a 61.4072,58.6652 0 0 1 61.4072,58.6652 61.4072,58.6652 0 1 1 -61.4072,-58.6652 z"
       style="fill:#00c9ca;fill-rule:evenodd"
       id="path214"
       inkscape:connector-curvature="0" />
    <path
       d="m -1179.5388,282.5273 c 0.6236,-0.6236 1.4404,-0.9354 2.2573,-0.9354 0.817,0 1.6338,0.3117 2.2574,0.9354 1.247,1.2455 1.247,3.2674 0,4.5145 l -18.2205,24.6053 c -0.6227,0.6236 -1.4404,0.9354 -2.2573,0.9354 -0.817,0 -1.6346,-0.3117 -2.2572,-0.9354 -1.2471,-1.247 -1.2471,-3.2674 0,-4.5144 z"
       style="fill:#1ab8b8;fill-rule:evenodd"
       id="path216"
       inkscape:connector-curvature="0" />
    <path
       d="m -1157.1904,299.8122 h -7.9815 -15.3363 l -10.1703,13.7353 -0.1411,0.1902 -0.1668,0.1668 c -1.2066,1.2066 -2.81,1.8705 -4.5155,1.8705 -1.7054,0 -3.3087,-0.664 -4.5153,-1.8705 -1.2058,-1.2052 -1.8699,-2.809 -1.8699,-4.5144 0,-1.6136 0.5947,-3.135 1.6797,-4.3166 l 3.8965,-5.2611 -23.1357,-1e-4 h -7.9814 c -1.7631,0 -3.1926,1.4294 -3.1926,3.1925 0,1.763 1.4295,3.1926 3.1926,3.1926 h 3.5473 l 6.0306,27.1372 c 0,2.6454 2.1443,4.7889 4.7889,4.7889 h 41.504 c 2.644,0 4.789,-2.1435 4.789,-4.7889 l 6.0298,-27.1372 h 3.5481 c 1.7631,0 3.1927,-1.4294 3.1927,-3.1926 -10e-5,-1.7632 -1.4297,-3.1926 -3.1928,-3.1926 z m -47.8893,30.3296 c 0,1.7631 -1.4294,3.1927 -3.1927,3.1927 -1.7632,0 -3.1926,-1.4296 -3.1926,-3.1927 v -9.5778 c 0,-1.7629 1.4294,-3.1925 3.1926,-3.1925 1.7633,0 3.1927,1.4296 3.1927,3.1925 z m 15.963,0 c 0,1.7631 -1.4294,3.1927 -3.1925,3.1927 -1.7631,0 -3.1927,-1.4296 -3.1927,-3.1927 v -9.5778 c 0,-1.7629 1.4294,-3.1925 3.1927,-3.1925 1.7632,0 3.1925,1.4296 3.1925,3.1925 z m 15.9633,0 c 0,1.7631 -1.4296,3.1927 -3.1927,3.1927 -1.7629,0 -3.1925,-1.4296 -3.1925,-3.1927 v -9.5778 c 0,-1.7629 1.4296,-3.1925 3.1925,-3.1925 1.7631,0 3.1927,1.4296 3.1927,3.1925 z"
       style="fill:#1ab8b8;fill-rule:evenodd"
       id="path218"
       inkscape:connector-curvature="0" />
    <path
       d="m -1177.1728,279.6023 c 0.5993,-0.5992 1.3843,-0.8988 2.1693,-0.8988 0.7851,0 1.5701,0.2995 2.1693,0.8988 1.1985,1.197 1.1985,3.14 0,4.3384 l -17.5098,23.6457 c -0.5984,0.5993 -1.3842,0.8989 -2.1693,0.8989 -0.785,0 -1.5707,-0.2995 -2.1691,-0.8989 -1.1984,-1.1984 -1.1984,-3.1399 0,-4.3384 z"
       style="fill:#ffffff;fill-rule:evenodd"
       id="path220"
       inkscape:connector-curvature="0" />
    <path
       d="m -1155.696,296.213 h -7.6702 -14.7382 l -9.7735,13.1997 -0.1356,0.1828 -0.1604,0.1603 c -1.1595,1.1595 -2.7004,1.7975 -4.3393,1.7975 -1.6389,0 -3.1797,-0.6381 -4.3392,-1.7975 -1.1588,-1.1582 -1.797,-2.6995 -1.797,-4.3384 0,-1.5507 0.5715,-3.0127 1.6142,-4.1482 l 3.7445,-5.0559 -22.2333,-1e-4 h -7.6702 c -1.6943,0 -3.068,1.3736 -3.068,3.0679 0,1.6944 1.3737,3.0682 3.068,3.0682 h 3.409 l 5.7954,26.0787 c 0,2.5422 2.0607,4.6022 4.6021,4.6022 h 39.8853 c 2.5408,0 4.6022,-2.06 4.6022,-4.6022 l 5.7946,-26.0787 h 3.4097 c 1.6944,0 3.0682,-1.3737 3.0682,-3.0682 -2e-4,-1.6944 -1.374,-3.0681 -3.0683,-3.0681 z m -46.0214,29.1468 c 0,1.6943 -1.3737,3.0681 -3.0682,3.0681 -1.6945,0 -3.0682,-1.3738 -3.0682,-3.0681 v -9.2043 c 0,-1.6942 1.3737,-3.068 3.0682,-3.068 1.6945,0 3.0682,1.3738 3.0682,3.068 z m 15.3403,0 c 0,1.6943 -1.3737,3.0681 -3.068,3.0681 -1.6943,0 -3.0682,-1.3738 -3.0682,-3.0681 v -9.2043 c 0,-1.6942 1.3737,-3.068 3.0682,-3.068 1.6945,0 3.068,1.3738 3.068,3.068 z m 15.3407,0 c 0,1.6943 -1.3739,3.0681 -3.0682,3.0681 -1.6941,0 -3.068,-1.3738 -3.068,-3.0681 v -9.2043 c 0,-1.6942 1.3739,-3.068 3.068,-3.068 1.6943,0 3.0682,1.3738 3.0682,3.068 z"
       style="fill:#ffffff;fill-rule:evenodd"
       id="path222"
       inkscape:connector-curvature="0" />
  </g>
  <g
     id="Layer1041"
     transform="matrix(0.40047853,0,0,0.39186005,842.61829,379.87113)">
    <path
       d="m -1870.866,-91.4872 a 61.4404,61.4398 0 0 1 61.4404,61.4398 61.4404,61.4398 0 1 1 -61.4404,-61.4398 z"
       style="fill:#578ea3;fill-rule:evenodd"
       id="path225"
       inkscape:connector-curvature="0" />
    <path
       d="m -1870.8992,-85.938 a 61.4072,58.6652 0 0 1 61.4072,58.6652 61.4072,58.6652 0 1 1 -61.4072,-58.6652 z"
       style="fill:#6bb0cf;fill-rule:evenodd"
       id="path227"
       inkscape:connector-curvature="0" />
    <path
       d="m -1887.5467,-42.2952 2.4096,40.7657 h 5.4132 l -2.4096,-40.7657 z m 32.3019,-9.1515 v 1e-4 l 7.3981,-1e-4 -0.8056,9.1515 h -0.1076 l -3.8832,49.5801 h -37.8559 l -2.5169,-32.1352 -2.0681,-26.5964 h 8.094 5.7549 v 0 h 20.2403 z m -31.7452,0 z m 26.3742,9.1515 -2.4096,40.7657 h 5.4132 l 2.4096,-40.7657 z m -7.4486,0 h -5.418 v 40.7657 h 5.418 z"
       style="fill:#5399b5;fill-rule:evenodd"
       id="path229"
       inkscape:connector-curvature="0" />
    <path
       d="m -1881.1967,-58.7328 h 20.1636 v 9.6007 h -3.9473 v -6.2081 h -12.2689 v 6.2081 h -3.9474 z"
       style="fill:#578ea3;fill-rule:evenodd"
       id="path231"
       inkscape:connector-curvature="0" />
    <path
       d="m -1881.0012,-46.9518 2.1153,35.7875 h 4.7522 l -2.1153,-35.7875 z m 28.3572,-8.034 v 10e-5 l 6.4947,-10e-5 -0.7073,8.034 h -0.094 l -3.409,43.5254 -33.233,1e-4 -2.2095,-28.211 -1.8155,-23.3485 h 7.1055 5.0522 v 0 h 17.7686 z m -27.8685,0 z m 23.1534,8.034 -2.1153,35.7875 h 4.7522 l 2.1153,-35.7875 z m -6.539,0 h -4.7563 v 35.7875 h 4.7563 z"
       style="fill:#ffffff;fill-rule:evenodd"
       id="path233"
       inkscape:connector-curvature="0" />
    <path
       d="m -1875.4266,-61.3821 h 17.7012 v 8.4283 h -3.4653 v -5.45 h -10.7706 v 5.45 h -3.4653 z"
       style="fill:#ffffff;fill-rule:evenodd"
       id="path235"
       inkscape:connector-curvature="0" />
  </g>
  <g
     id="Layer1042"
     transform="matrix(0.40047853,0,0,0.39186005,842.61829,379.87113)">
    <path
       d="m -1870.866,-261.5661 a 61.4401,61.4399 0 0 1 61.4401,61.44 61.4401,61.4399 0 1 1 -61.4401,-61.44 z"
       style="fill:#008e80;fill-rule:evenodd"
       id="path238"
       inkscape:connector-curvature="0" />
    <path
       d="m -1870.8992,-256.0168 a 61.4069,58.6653 0 0 1 61.4069,58.6653 61.4069,58.6653 0 1 1 -61.4069,-58.6653 z"
       style="fill:#00b8a6;fill-rule:evenodd"
       id="path240"
       inkscape:connector-curvature="0" />
    <path
       d="m -1894.671,-213.5801 v 48.8725 c 0,1.545 0.619,3.7776 2.361,3.7776 1.9562,0 1.97,-0.009 3.7829,-1.0571 l 40.1711,-23.1034 c 1.4657,-0.7426 4.9273,-2.8229 6.0129,-3.9032 0.7585,-0.7549 0.7943,-1.1211 0.7943,-2.157 0,-2.0332 -3.2139,-3.7114 -5.1536,-4.7625 -1.9921,-1.0795 -4.4282,-2.6563 -6.3377,-3.6966 l -17.3179,-10.0695 c -0.2661,-0.1527 -0.4835,-0.232 -0.7731,-0.4074 -0.3201,-0.1939 -0.4539,-0.323 -0.7952,-0.5033 l -17.3517,-10.0358 c -1.2242,-0.6664 -3.2069,-0.9022 -4.362,0.4035 -1.3915,1.5731 -0.7421,2.5155 -0.9812,4.095 -0.122,0.8059 -0.05,1.7115 -0.05,2.5472 z"
       style="fill:#04a293;fill-rule:evenodd"
       id="path242"
       inkscape:connector-curvature="0" />
    <path
       d="m -1888.4096,-225.0196 v 48.8724 c 0,1.545 0.619,3.7776 2.361,3.7776 1.9563,0 1.97,-0.009 3.7829,-1.0571 l 40.1712,-23.1033 c 1.4657,-0.7427 4.9272,-2.823 6.0128,-3.9033 0.7585,-0.7548 0.7943,-1.1211 0.7943,-2.157 0,-2.0332 -3.2139,-3.7114 -5.1536,-4.7625 -1.9921,-1.0795 -4.4282,-2.6563 -6.3376,-3.6965 l -17.318,-10.0696 c -0.2661,-0.1527 -0.4835,-0.232 -0.7731,-0.4074 -0.3201,-0.1938 -0.4538,-0.323 -0.7952,-0.5033 l -17.3516,-10.0358 c -1.2243,-0.6663 -3.207,-0.9022 -4.3621,0.4036 -1.3915,1.573 -0.7421,2.5154 -0.9812,4.0949 -0.122,0.806 -0.05,1.7115 -0.05,2.5473 z"
       style="fill:#ffffff;fill-rule:evenodd"
       id="path244"
       inkscape:connector-curvature="0" />
  </g>
  <g
     id="Layer1043"
     transform="matrix(0.40047853,0,0,0.39186005,842.61829,379.87113)">
    <path
       d="m -1360.6298,-91.4874 a 61.4404,61.4399 0 0 1 61.4404,61.44 61.4404,61.4399 0 1 1 -61.4404,-61.44 z"
       style="fill:#916248;fill-rule:evenodd"
       id="path247"
       inkscape:connector-curvature="0" />
    <path
       d="m -1360.663,-85.9381 a 61.4072,58.6653 0 0 1 61.4072,58.6653 61.4072,58.6653 0 1 1 -61.4072,-58.6653 z"
       style="fill:#bb7e5d;fill-rule:evenodd"
       id="path249"
       inkscape:connector-curvature="0" />
    <path
       d="m -1332.4261,-26.3224 -22.7032,-19.1657 c -3.082,-2.61 -5.6155,-1.4317 -5.6155,2.6156 v 15.9716 l -22.0158,-18.5872 c -3.0904,-2.61 -5.616,-1.4317 -5.616,2.6156 v 42.5944 c 0,4.05 2.5256,5.2174 5.616,2.6126 l 22.0158,-18.5899 v 15.9773 c 0,4.05 2.5336,5.2174 5.6156,2.6126 l 22.7033,-19.1657 c 3.0926,-2.6073 3.0926,-6.8782 -2e-4,-9.4912 z"
       style="fill:#9f6b4f;fill-rule:evenodd"
       id="path251"
       inkscape:connector-curvature="0" />
    <path
       d="m -1328.6023,-39.6283 -21.8388,-18.4361 c -2.9647,-2.5106 -5.4017,-1.3772 -5.4017,2.516 v 15.3636 l -21.1777,-17.8796 c -2.9727,-2.5106 -5.4021,-1.3772 -5.4021,2.516 v 40.9728 c 0,3.8958 2.4294,5.0187 5.4021,2.5131 l 21.1777,-17.8821 v 15.369 c 0,3.8958 2.4371,5.0187 5.4018,2.5131 l 21.8388,-18.436 c 2.975,-2.5081 2.975,-6.6163 -10e-5,-9.1298 z"
       style="fill:#ffffff;fill-rule:evenodd"
       id="path253"
       inkscape:connector-curvature="0" />
  </g>
  <g
     id="Layer1044"
     transform="matrix(0.40047853,0,0,0.39186005,842.61829,379.87113)">
    <path
       d="m -1530.7088,-91.4872 a 61.4404,61.4398 0 0 0 -61.4403,61.4398 61.4404,61.4398 0 1 0 61.4403,-61.4398 z"
       style="fill:#916248;fill-rule:evenodd"
       id="path256"
       inkscape:connector-curvature="0" />
    <path
       d="m -1530.6756,-85.938 a 61.4072,58.6652 0 0 0 -61.4072,58.6652 61.4072,58.6652 0 1 0 61.4072,-58.6652 z"
       style="fill:#bb7e5d;fill-rule:evenodd"
       id="path258"
       inkscape:connector-curvature="0" />
    <path
       d="m -1568.0641,-25.3587 22.7032,-19.1657 c 3.082,-2.61 5.6155,-1.4318 5.6155,2.6156 v 15.9716 l 22.0159,-18.5872 c 3.0904,-2.61 5.616,-1.4318 5.616,2.6156 V 0.6855 c 0,4.05 -2.5256,5.2173 -5.616,2.6126 l -22.0159,-18.5899 V 0.6855 c 0,4.05 -2.5335,5.2173 -5.6156,2.6126 l -22.7032,-19.1656 c -3.0927,-2.6074 -3.0927,-6.8782 10e-5,-9.4912 z"
       style="fill:#9f6b4f;fill-rule:evenodd"
       id="path260"
       inkscape:connector-curvature="0" />
    <path
       d="m -1562.7363,-39.6283 21.8389,-18.436 c 2.9646,-2.5106 5.4017,-1.3772 5.4017,2.516 v 15.3635 l 21.1776,-17.8795 c 2.9727,-2.5106 5.4022,-1.3772 5.4022,2.516 v 40.9727 c 0,3.8958 -2.4295,5.0186 -5.4022,2.5131 l -21.1776,-17.8821 v 15.369 c 0,3.8958 -2.4371,5.0186 -5.4018,2.5131 l -21.8389,-18.436 c -2.9749,-2.5081 -2.9749,-6.6163 10e-5,-9.1298 z"
       style="fill:#ffffff;fill-rule:evenodd"
       id="path262"
       inkscape:connector-curvature="0" />
  </g>
  <g
     id="Layer1045"
     transform="matrix(0.40047853,0,0,0.39186005,842.61829,379.87113)">
    <path
       d="m -850.3939,-91.4872 a 61.4404,61.4398 0 0 1 61.4404,61.4398 61.4404,61.4398 0 1 1 -61.4404,-61.4398 z"
       style="fill:#c9324b;fill-rule:evenodd"
       id="path265"
       inkscape:connector-curvature="0" />
    <path
       d="m -850.427,-85.9379 a 61.4072,58.6652 0 0 1 61.4071,58.6651 61.4072,58.6652 0 1 1 -61.4071,-58.6651 z"
       style="fill:#d94d6a;fill-rule:evenodd"
       id="path267"
       inkscape:connector-curvature="0" />
    <g
       id="Layer1046">
      <path
         d="m -874.4738,-26.8396 v 22.7047 c 0,3.4333 2.8139,6.2499 6.2503,6.2499 h 10.4168 v -21.3222 h 12.1218 V 2.1149 h 10.4137 c 3.4368,0 6.2504,-2.8166 6.2504,-6.2499 v -22.7047 l -22.7278,-16.3844 z m 56.2191,-8.3742 -8.3714,-6.0376 c -1.3909,-1.0066 -2.5345,-3.2327 -2.5345,-4.9463 l -10e-5,-9.9251 c 0,-1.7138 -1.4026,-3.1221 -3.1191,-3.1221 h -2.9387 c -1.717,0 -3.1196,1.4083 -3.1196,3.1221 v 3.2996 c 0,1.7139 -1.143,2.2955 -2.5369,1.2948 l -8.2521,-5.9528 c -1.3906,-1.007 -2.5489,-1.8455 -2.5606,-1.8684 -0.0208,-0.0235 -0.0407,-0.0382 -0.0465,-0.0319 -0.006,0.0058 -0.0207,0.0058 -0.0262,0 -0.006,-0.0063 -0.0319,0.0084 -0.0408,0.0319 -0.0144,0.0229 -1.1697,0.8614 -2.5606,1.8684 l -30.8722,22.2674 c -1.3937,1.004 -1.7138,2.968 -0.7042,4.3591 l 1.1755,1.6349 c 0.6753,0.9402 1.7779,1.3359 2.8546,1.2314 l 30.1532,-21.7533 0.006,-0.0057 h 0.009 v 0.0057 l 30.1595,21.7533 c 1.0764,0.1046 2.1792,-0.2913 2.8513,-1.2314 l 1.1784,-1.635 c 1.0039,-1.3909 0.6901,-3.355 -0.7038,-4.359 z"
         style="fill:#c9324b;fill-rule:evenodd"
         id="path269"
         inkscape:connector-curvature="0" />
      <path
         d="m -870.5777,-31.7332 v 20.9713 c 0,3.1712 2.5992,5.7728 5.7732,5.7728 l 9.6216,10e-5 v -19.6945 h 11.1964 v 19.6943 h 9.6187 c 3.1744,0 5.7732,-2.6015 5.7732,-5.7728 v -20.9713 l -20.9927,-15.1336 z m 51.9273,-7.7349 -7.7323,-5.5768 c -1.2847,-0.9297 -2.341,-2.9859 -2.341,-4.5686 l -10e-5,-9.1674 c 0,-1.583 -1.2955,-2.8838 -2.881,-2.8838 h -2.7144 c -1.5859,0 -2.8814,1.3008 -2.8814,2.8838 v 3.0477 c 0,1.583 -1.0557,2.1202 -2.3432,1.1959 l -7.6221,-5.4984 c -1.2845,-0.9301 -2.3543,-1.7046 -2.3652,-1.7257 -0.0191,-0.0217 -0.0375,-0.0353 -0.0429,-0.0294 -0.005,0.0053 -0.0191,0.0053 -0.0243,0 -0.005,-0.0059 -0.0294,0.0077 -0.0376,0.0294 -0.0133,0.0211 -1.0804,0.7956 -2.3651,1.7257 l -28.5155,20.5676 c -1.2872,0.9273 -1.5828,2.7413 -0.6503,4.0262 l 1.0857,1.5102 c 0.6238,0.8683 1.6422,1.2339 2.6367,1.1374 l 27.8512,-20.0927 0.006,-0.0052 h 0.008 v 0.0052 l 27.8571,20.0926 c 0.9942,0.0967 2.0128,-0.269 2.6336,-1.1374 l 1.0884,-1.5101 c 0.9274,-1.2848 0.6375,-3.0989 -0.65,-4.0262 z"
         style="fill:#ffffff;fill-rule:evenodd"
         id="path271"
         inkscape:connector-curvature="0" />
    </g>
  </g>
  <g
     id="Layer1047"
     transform="matrix(0.40047853,0,0,0.39186005,842.61829,379.87113)">
    <path
       d="m -1700.7873,-91.4872 a 61.4405,61.4398 0 0 1 61.4405,61.4398 61.4405,61.4398 0 1 1 -61.4405,-61.4398 z"
       style="fill:#d74542;fill-rule:evenodd"
       id="path275"
       inkscape:connector-curvature="0" />
    <path
       d="m -1700.8205,-85.9379 a 61.4073,58.6652 0 0 1 61.4074,58.6652 61.4073,58.6652 0 1 1 -61.4074,-58.6652 z"
       style="fill:#e95d52;fill-rule:evenodd"
       id="path277"
       inkscape:connector-curvature="0" />
    <path
       d="m -1732.945,-38.5795 c 0,3.0134 -0.091,3.568 0.4096,6.6196 1.1815,7.198 4.9401,13.4222 9.531,18.8731 0.402,0.4773 0.669,0.6909 1.0841,1.2111 l 4.3855,4.3652 c 1.1989,0.9257 3.0949,2.7213 4.7756,3.9752 1.3259,0.9893 9.5597,6.8444 10.6571,6.8444 0.616,0 5.6697,-3.3502 6.7998,-4.1027 1.8505,-1.2318 5.2386,-3.7422 6.8619,-5.1883 0.2579,-0.2297 0.3028,-0.315 0.601,-0.5466 0.5538,-0.4302 0.7145,-0.6756 1.1957,-1.0996 3.0747,-2.7097 6.0162,-5.9715 8.3562,-9.2888 0.3028,-0.4293 0.5711,-0.7883 0.8888,-1.2629 0.3344,-0.4996 0.5484,-0.8881 0.8903,-1.405 2.8553,-4.3164 5.2491,-11.1556 5.2491,-16.9863 0,-4.4466 -0.8745,-9.3601 -3.8394,-12.6578 -1.8431,-2.0498 -3.3256,-3.348 -6.0528,-4.5628 -6.9467,-3.0942 -15.4099,-1.5901 -19.8255,4.4307 -0.2883,0.3931 -0.8596,1.1432 -0.9817,1.6005 -0.6338,-0.1692 -0.311,-0.2513 -1.148,-1.4342 -5.5139,-7.7928 -18.0138,-8.1844 -24.925,-1.2556 -2.9365,2.9438 -4.9133,7.3699 -4.9133,11.8708 z"
       style="fill:#c45547;fill-rule:evenodd"
       id="path279"
       inkscape:connector-curvature="0" />
    <path
       d="m -1727.233,-43.9561 c 0,2.7708 -0.084,3.2808 0.3767,6.0868 1.0864,6.6186 4.5424,12.3417 8.7638,17.3538 0.3696,0.4389 0.6152,0.6353 0.9968,1.1137 l 4.0325,4.0138 c 1.1024,0.8512 2.8458,2.5022 4.3912,3.6552 1.2192,0.9096 8.7902,6.2934 9.7992,6.2934 0.5664,0 5.2133,-3.0805 6.2525,-3.7724 1.7015,-1.1327 4.8169,-3.441 6.3096,-4.7707 0.2371,-0.2112 0.2784,-0.2897 0.5526,-0.5026 0.5092,-0.3956 0.657,-0.6212 1.0994,-1.0111 2.8272,-2.4916 5.5319,-5.4908 7.6835,-8.5411 0.2785,-0.3947 0.5252,-0.7248 0.8174,-1.1613 0.3074,-0.4593 0.5042,-0.8165 0.8186,-1.2918 2.6254,-3.969 4.8266,-10.2576 4.8266,-15.619 0,-4.0886 -0.8042,-8.6067 -3.5304,-11.6389 -1.6948,-1.8848 -3.0579,-3.0785 -5.5656,-4.1955 -6.3875,-2.8452 -14.1694,-1.4621 -18.2296,4.074 -0.2651,0.3615 -0.7904,1.0512 -0.9027,1.4717 -0.5828,-0.1556 -0.286,-0.2311 -1.0556,-1.3188 -5.0701,-7.1655 -16.5638,-7.5255 -22.9187,-1.1545 -2.7,2.7069 -4.5178,6.7767 -4.5178,10.9153 z"
       style="fill:#ffffff;fill-rule:evenodd"
       id="path281"
       inkscape:connector-curvature="0" />
  </g>
  <g
     id="Layer1048"
     transform="matrix(0.40047853,0,0,0.39186005,842.61829,379.87113)">
    <path
       d="m -1360.6299,78.5917 c 33.9327,0 61.4402,27.5073 61.4402,61.4398 0,19.0551 -8.6754,36.0832 -22.2908,47.3526 h -78.2989 c -13.6154,-11.2694 -22.2907,-28.2975 -22.2907,-47.3526 0,-33.9325 27.5074,-61.4398 61.4402,-61.4398 z"
       style="fill:#f59e1b;fill-rule:evenodd"
       id="path284"
       inkscape:connector-curvature="0" />
    <path
       d="m -1360.663,84.1408 a 61.4072,58.6652 0 0 1 61.4072,58.6652 61.4072,58.6652 0 1 1 -61.4072,-58.6652 z"
       style="fill:#f2c40f;fill-rule:evenodd"
       id="path286"
       inkscape:connector-curvature="0" />
    <g
       id="Layer1049">
      <path
         d="m -1388.4196,128.104 h 8.9066 c 1.0386,7.8632 2.2079,13.8952 5.954,20.8319 -6.169,-2.5747 -14.1713,-5.4293 -14.8606,-20.8319 z m 36.5053,3.4162 -3.5494,3.4596 0.8372,4.8849 c 0.073,0.4266 -0.1023,0.8575 -0.4527,1.1131 -0.1979,0.1448 -0.4337,0.2174 -0.6694,0.2174 -0.1811,0 -0.3626,-0.0433 -0.5289,-0.1311 l -4.3869,-2.3066 -4.3865,2.3066 c -0.1663,0.0878 -0.3482,0.1311 -0.5293,0.1311 -0.2369,0 -0.4711,-0.0726 -0.6682,-0.2174 -0.3497,-0.2556 -0.5249,-0.6865 -0.4523,-1.1131 l 0.8372,-4.8849 -3.5494,-3.4596 c -0.3103,-0.3028 -0.4219,-0.7544 -0.2873,-1.1658 0.1327,-0.4125 0.4887,-0.7127 0.9176,-0.7751 l 4.9049,-0.7127 2.1927,-4.4435 c 0.1924,-0.3895 0.587,-0.635 1.0206,-0.635 0.434,0 0.8286,0.2455 1.0206,0.635 l 2.1939,4.4435 4.9045,0.7127 c 0.4281,0.0624 0.7841,0.3626 0.9183,0.7751 0.1335,0.4114 0.022,0.8645 -0.2872,1.1658 z m 4.1457,17.4153 c 3.7476,-6.9363 5.7249,-16.4672 6.7611,-20.0244 h 8.905 c -0.6877,11.0953 -9.4982,17.4524 -15.6661,20.0244 z m 7.2209,-28.2331 c 0.6272,-6.0643 0.6877,-10.4025 0.6877,-10.4025 h -41.6084 c 0,0 0.06,4.3382 0.6877,10.4025 -4.3592,0 -12.3888,0 -12.3888,0 v 1.9503 c 0,24.0488 17.451,30.1308 23.2754,31.4878 2.0436,2.163 4.4478,3.643 7.2786,4.1106 v 4.7101 c 0,4.5484 -4.7675,8.4514 -8.6677,8.4514 -1.0745,0 -1.9491,0.8731 -1.9491,1.9499 0,1.076 0.8746,1.9499 1.9491,1.9499 h 10.6169 10.618 c 1.0795,0 1.9515,-0.8739 1.9515,-1.9499 0,-1.0768 -0.872,-1.9499 -1.9515,-1.9499 -3.8979,0 -8.6654,-3.903 -8.6654,-8.4514 v -4.7101 c 2.8308,-0.4676 5.2378,-1.9476 7.2861,-4.1106 5.8216,-1.3578 23.2702,-7.4386 23.2702,-31.4878 v -1.9499 c 0,-4e-4 -8.9534,-4e-4 -12.3903,-4e-4 z"
         style="fill:#f59e1b;fill-rule:evenodd"
         id="path288"
         inkscape:connector-curvature="0" />
      <path
         d="m -1384.0358,123.5445 h 8.3486 c 0.9735,7.3707 2.0696,13.0248 5.581,19.5269 -5.7826,-2.4135 -13.2835,-5.0892 -13.9296,-19.5269 z m 34.2183,3.2023 -3.327,3.2428 0.7847,4.5789 c 0.068,0.3999 -0.096,0.8037 -0.4244,1.0434 -0.1855,0.1357 -0.4064,0.2037 -0.6274,0.2037 -0.1698,0 -0.3399,-0.0406 -0.4957,-0.1229 l -4.1121,-2.1621 -4.1118,2.1621 c -0.1558,0.0823 -0.3263,0.1229 -0.496,0.1229 -0.2221,0 -0.4416,-0.068 -0.6264,-0.2037 -0.3278,-0.2397 -0.492,-0.6435 -0.424,-1.0434 l 0.7847,-4.5789 -3.3269,-3.2428 c -0.2909,-0.2839 -0.3955,-0.7072 -0.2693,-1.0928 0.1244,-0.3867 0.458,-0.668 0.8601,-0.7266 l 4.5976,-0.668 2.0553,-4.1651 c 0.1803,-0.3651 0.5502,-0.5952 0.9567,-0.5952 0.4068,0 0.7767,0.2301 0.9567,0.5952 l 2.0564,4.1651 4.5972,0.668 c 0.4013,0.0586 0.735,0.3399 0.8608,0.7266 0.1251,0.3856 0.021,0.8103 -0.2692,1.0928 z m 3.886,16.3242 c 3.5128,-6.5017 5.3662,-15.4356 6.3375,-18.7699 h 8.3471 c -0.6446,10.4002 -8.9032,16.359 -14.6846,18.7699 z m 6.7685,-26.4643 c 0.5879,-5.6845 0.6446,-9.7508 0.6446,-9.7508 h -39.0017 c 0,0 0.056,4.0663 0.6446,9.7508 -4.0861,0 -11.6126,0 -11.6126,0 v 1.8281 c 0,22.5422 16.3577,28.2431 21.8172,29.5151 1.9155,2.0275 4.1691,3.4148 6.8226,3.8531 v 4.415 c 0,4.2635 -4.4688,7.9219 -8.1247,7.9219 -1.0072,0 -1.827,0.8184 -1.827,1.8278 0,1.0086 0.8198,1.8277 1.827,1.8277 h 9.9517 9.9529 c 1.0119,0 1.8292,-0.8191 1.8292,-1.8277 0,-1.0094 -0.8173,-1.8278 -1.8292,-1.8278 -3.6537,0 -8.1225,-3.6584 -8.1225,-7.9219 v -4.415 c 2.6534,-0.4383 4.9096,-1.8256 6.8296,-3.8531 5.4569,-1.2727 21.8124,-6.9726 21.8124,-29.5151 v -1.8277 c 0,-4e-4 -8.3925,-4e-4 -11.6141,-4e-4 z"
         style="fill:#ffffff;fill-rule:evenodd"
         id="path290"
         inkscape:connector-curvature="0" />
    </g>
  </g>
  <g
     id="Layer1050"
     transform="matrix(0.40047853,0,0,0.39186005,842.61829,379.87113)">
    <path
       d="m -1360.6298,-261.5661 a 61.4404,61.4399 0 0 1 61.4404,61.44 61.4404,61.4399 0 1 1 -61.4404,-61.44 z"
       style="fill:#b66d74;fill-rule:evenodd"
       id="path294"
       inkscape:connector-curvature="0" />
    <path
       d="m -1360.663,-256.0168 a 61.4072,58.6653 0 0 1 61.4072,58.6653 61.4072,58.6653 0 1 1 -61.4072,-58.6653 z"
       style="fill:#e08a93;fill-rule:evenodd"
       id="path296"
       inkscape:connector-curvature="0" />
    <g
       id="Layer1051">
      <path
         d="m -1379.4749,-221.083 h 39.0962 c 9.8002,0 17.8182,8.018 17.8182,17.8181 v 0 c 0,9.8001 -8.018,17.8182 -17.8182,17.8182 h -39.0962 c -9.8001,0 -17.8182,-8.0181 -17.8182,-17.8182 v 0 c 0,-9.8001 8.0181,-17.8181 17.8182,-17.8181 z m -5.3537,24.5369 -1.1786,-1.1785 c -0.7296,-0.7294 -0.7296,-1.9232 0,-2.6529 l 3.8462,-3.8458 -3.8462,-3.8462 c -0.7296,-0.7293 -0.7296,-1.9232 0,-2.6528 l 1.1788,-1.1786 c 0.7294,-0.7293 1.923,-0.7293 2.6526,0 l 3.8462,3.8462 3.8461,-3.8462 c 0.7294,-0.7293 1.923,-0.7293 2.6526,0 l 1.1786,1.1786 c 0.7293,0.7296 0.7293,1.9232 0,2.6525 l -3.8462,3.8462 3.8462,3.8461 c 0.7293,0.7297 0.7296,1.9235 3e-4,2.6529 l -1.1786,1.1785 c -0.7299,0.7297 -1.9238,0.7297 -2.6531,0 l -3.8462,-3.8461 -3.8459,3.8461 c -0.7296,0.7297 -1.9235,0.7297 -2.6528,0 z m 28.612,-4.1126 h 1.5423 c 0.3782,0 0.6876,0.3094 0.6876,0.6878 v 0 c 0,0.3782 -0.3094,0.6876 -0.6876,0.6876 h -1.5423 c -0.3782,0 -0.6876,-0.3094 -0.6876,-0.6876 v 0 c 0,-0.3784 0.3094,-0.6878 0.6876,-0.6878 z m -5.8352,0 h 1.5423 c 0.3782,0 0.6876,0.3094 0.6876,0.6876 v 2e-4 c 0,0.3782 -0.3094,0.6876 -0.6876,0.6876 h -1.5423 c -0.3782,0 -0.6878,-0.3094 -0.6878,-0.6876 v -2e-4 c 0,-0.3782 0.3096,-0.6876 0.6878,-0.6876 z m 15.9723,-4.2924 c 1.6818,-0.5363 3.48,0.3924 4.0163,2.074 0.5363,1.6818 -0.3924,3.4799 -2.0742,4.0162 -1.6816,0.5363 -3.4797,-0.3924 -4.0161,-2.0739 -0.5363,-1.6818 0.3924,-3.48 2.074,-4.0163 z m 4.1482,-8.0319 c 1.6815,-0.5363 3.4797,0.3921 4.016,2.0739 0.5363,1.6818 -0.3924,3.4797 -2.074,4.016 -1.6818,0.5363 -3.48,-0.3921 -4.0163,-2.0739 -0.536,-1.6819 0.3924,-3.4797 2.0743,-4.016 z m 3.8841,12.1801 c 1.6818,-0.5363 3.4797,0.3921 4.016,2.0739 0.5363,1.6818 -0.3921,3.4797 -2.074,4.016 -1.6818,0.5363 -3.4797,-0.3921 -4.016,-2.0739 -0.5363,-1.6818 0.3922,-3.4797 2.074,-4.016 z m 4.1479,-8.0323 c 1.6818,-0.5363 3.48,0.3922 4.0163,2.074 0.5363,1.6818 -0.3924,3.4799 -2.0743,4.016 -1.6815,0.5363 -3.4797,-0.3922 -4.016,-2.074 -0.5363,-1.6815 0.3924,-3.4797 2.074,-4.016 z"
         style="fill:#ffffff;fill-rule:evenodd"
         id="path298"
         inkscape:connector-curvature="0" />
      <path
         d="m -1383.1364,-217.1309 h 41.63 c 10.4352,0 18.973,8.5377 18.973,18.9729 v 0 c 0,10.4352 -8.5378,18.9729 -18.973,18.9729 h -41.63 c -10.4353,0 -18.973,-8.5377 -18.973,-18.9729 v 0 c 0,-10.4352 8.5377,-18.9729 18.973,-18.9729 z m -5.7008,26.1272 -1.2549,-1.255 c -0.7769,-0.7766 -0.7769,-2.0478 0,-2.8247 l 4.0954,-4.0952 -4.0954,-4.0954 c -0.7769,-0.7766 -0.7769,-2.0478 0,-2.8247 l 1.2552,-1.255 c 0.7767,-0.7766 2.0476,-0.7766 2.8245,0 l 4.0954,4.0954 4.0955,-4.0954 c 0.7766,-0.7766 2.0475,-0.7766 2.8245,0 l 1.2549,1.255 c 0.7766,0.7769 0.7766,2.0478 0,2.8244 l -4.0954,4.0955 4.0954,4.0954 c 0.7766,0.7769 0.7769,2.0481 3e-4,2.8247 l -1.255,1.255 c -0.7772,0.7769 -2.0484,0.7769 -2.825,0 l -4.0955,-4.0954 -4.0951,4.0954 c -0.7769,0.7769 -2.0481,0.7769 -2.8248,0 z m 30.4664,-4.3792 h 1.6422 c 0.4027,0 0.7322,0.3294 0.7322,0.7324 v 0 c 0,0.4027 -0.3295,0.7321 -0.7322,0.7321 h -1.6422 c -0.4027,0 -0.7322,-0.3294 -0.7322,-0.7321 v 0 c 0,-0.403 0.3295,-0.7324 0.7322,-0.7324 z m -6.2134,0 h 1.6423 c 0.4027,0 0.7321,0.3294 0.7321,0.7321 v 3e-4 c 0,0.4027 -0.3294,0.7321 -0.7321,0.7321 h -1.6423 c -0.4027,0 -0.7324,-0.3294 -0.7324,-0.7321 v -3e-4 c 0,-0.4027 0.3297,-0.7321 0.7324,-0.7321 z m 17.0075,-4.5705 c 1.7908,-0.5711 3.7055,0.4178 4.2765,2.2083 0.5711,1.7908 -0.4178,3.7055 -2.2086,4.2766 -1.7905,0.571 -3.7052,-0.4179 -4.2763,-2.2084 -0.5711,-1.7908 0.4178,-3.7055 2.2084,-4.2765 z m 4.417,-8.5526 c 1.7905,-0.571 3.7052,0.4176 4.2763,2.2084 0.571,1.7908 -0.4179,3.7052 -2.2084,4.2762 -1.7908,0.5711 -3.7055,-0.4175 -4.2766,-2.2083 -0.5707,-1.7908 0.4179,-3.7052 2.2087,-4.2763 z m 4.1358,12.9695 c 1.7908,-0.571 3.7052,0.4176 4.2763,2.2084 0.5711,1.7908 -0.4175,3.7052 -2.2084,4.2763 -1.7908,0.571 -3.7052,-0.4176 -4.2762,-2.2084 -0.5711,-1.7908 0.4175,-3.7052 2.2083,-4.2763 z m 4.4167,-8.5528 c 1.7909,-0.571 3.7056,0.4176 4.2766,2.2084 0.5711,1.7908 -0.4178,3.7055 -2.2086,4.2762 -1.7906,0.5711 -3.7053,-0.4175 -4.2763,-2.2083 -0.5711,-1.7905 0.4178,-3.7052 2.2083,-4.2763 z"
         style="fill:#c49399;fill-rule:evenodd"
         id="path300"
         inkscape:connector-curvature="0" />
      <path
         d="m -1379.4749,-221.083 h 39.0962 c 9.8002,0 17.8182,8.018 17.8182,17.8181 v 0 c 0,9.8001 -8.018,17.8182 -17.8182,17.8182 h -39.0962 c -9.8001,0 -17.8182,-8.0181 -17.8182,-17.8182 v 0 c 0,-9.8001 8.0181,-17.8181 17.8182,-17.8181 z m -5.3537,24.5369 -1.1786,-1.1785 c -0.7296,-0.7294 -0.7296,-1.9232 0,-2.6529 l 3.8462,-3.8458 -3.8462,-3.8462 c -0.7296,-0.7293 -0.7296,-1.9232 0,-2.6528 l 1.1788,-1.1786 c 0.7294,-0.7293 1.923,-0.7293 2.6526,0 l 3.8462,3.8462 3.8461,-3.8462 c 0.7294,-0.7293 1.923,-0.7293 2.6526,0 l 1.1786,1.1786 c 0.7293,0.7296 0.7293,1.9232 0,2.6525 l -3.8462,3.8462 3.8462,3.8461 c 0.7293,0.7297 0.7296,1.9235 3e-4,2.6529 l -1.1786,1.1785 c -0.7299,0.7297 -1.9238,0.7297 -2.6531,0 l -3.8462,-3.8461 -3.8459,3.8461 c -0.7296,0.7297 -1.9235,0.7297 -2.6528,0 z m 28.612,-4.1126 h 1.5423 c 0.3782,0 0.6876,0.3094 0.6876,0.6878 v 0 c 0,0.3782 -0.3094,0.6876 -0.6876,0.6876 h -1.5423 c -0.3782,0 -0.6876,-0.3094 -0.6876,-0.6876 v 0 c 0,-0.3784 0.3094,-0.6878 0.6876,-0.6878 z m -5.8352,0 h 1.5423 c 0.3782,0 0.6876,0.3094 0.6876,0.6876 v 2e-4 c 0,0.3782 -0.3094,0.6876 -0.6876,0.6876 h -1.5423 c -0.3782,0 -0.6878,-0.3094 -0.6878,-0.6876 v -2e-4 c 0,-0.3782 0.3096,-0.6876 0.6878,-0.6876 z m 15.9723,-4.2924 c 1.6818,-0.5363 3.48,0.3924 4.0163,2.074 0.5363,1.6818 -0.3924,3.4799 -2.0742,4.0162 -1.6816,0.5363 -3.4797,-0.3924 -4.0161,-2.0739 -0.5363,-1.6818 0.3924,-3.48 2.074,-4.0163 z m 4.1482,-8.0319 c 1.6815,-0.5363 3.4797,0.3921 4.016,2.0739 0.5363,1.6818 -0.3924,3.4797 -2.074,4.016 -1.6818,0.5363 -3.48,-0.3921 -4.0163,-2.0739 -0.536,-1.6819 0.3924,-3.4797 2.0743,-4.016 z m 3.8841,12.1801 c 1.6818,-0.5363 3.4797,0.3921 4.016,2.0739 0.5363,1.6818 -0.3921,3.4797 -2.074,4.016 -1.6818,0.5363 -3.4797,-0.3921 -4.016,-2.0739 -0.5363,-1.6818 0.3922,-3.4797 2.074,-4.016 z m 4.1479,-8.0323 c 1.6818,-0.5363 3.48,0.3922 4.0163,2.074 0.5363,1.6818 -0.3924,3.4799 -2.0743,4.016 -1.6815,0.5363 -3.4797,-0.3922 -4.016,-2.074 -0.5363,-1.6815 0.3924,-3.4797 2.074,-4.016 z"
         style="fill:#ffffff;fill-rule:evenodd"
         id="path302"
         inkscape:connector-curvature="0" />
    </g>
  </g>
  <g
     id="Layer1052"
     transform="matrix(0.40047853,0,0,0.39186005,842.61829,379.87113)">
    <path
       d="m -1870.8661,248.6697 c 33.9328,0 61.4402,27.5076 61.4402,61.4405 0,19.0553 -8.6753,36.0836 -22.2908,47.3532 h -78.2988 c -13.6155,-11.2696 -22.2908,-28.2979 -22.2908,-47.3532 0,-33.9329 27.5075,-61.4405 61.4402,-61.4405 z"
       style="fill:#b9651c;fill-rule:evenodd"
       id="path306"
       inkscape:connector-curvature="0" />
    <path
       d="m -1870.8991,254.2189 a 61.4072,58.6658 0 0 1 61.4071,58.6659 61.4072,58.6658 0 1 1 -61.4071,-58.6659 z"
       style="fill:#e77e23;fill-rule:evenodd"
       id="path308"
       inkscape:connector-curvature="0" />
    <g
       id="Layer1053">
      <path
         d="m -1845.886,305.1032 h -18.8099 v -18.8284 c 0,-1.9681 -1.6135,-3.5805 -3.5829,-3.5805 h -10.7476 c -1.9694,0 -3.581,1.6124 -3.581,3.5805 v 18.8284 h -18.8115 c -1.9695,0 -3.5837,1.6124 -3.5837,3.5859 v 10.7527 c 0,1.9734 1.6142,3.5858 3.5837,3.5858 l 18.8117,10e-5 v 18.8255 c 0,1.9683 1.6115,3.5859 3.581,3.5859 h 10.7475 c 1.9694,0 3.5829,-1.6176 3.5829,-3.5859 v -18.8255 h 18.8099 c 1.9717,0 3.5855,-1.6125 3.5855,-3.5859 v -10.7527 c 0,-1.9735 -1.6138,-3.5859 -3.5856,-3.5859 z"
         style="fill:#d87520;fill-rule:evenodd"
         id="path310"
         inkscape:connector-curvature="0" />
      <path
         d="m -1844.427,298.9805 h -17.5117 v -17.5289 c 0,-1.8323 -1.5021,-3.3334 -3.3356,-3.3334 h -10.0057 c -1.8336,0 -3.3339,1.5011 -3.3339,3.3334 v 17.5288 l -17.5132,1e-4 c -1.8335,0 -3.3363,1.5011 -3.3363,3.3383 v 10.0106 c 0,1.8373 1.5028,3.3384 3.3363,3.3384 h 17.5133 v 17.5262 c 0,1.8325 1.5004,3.3384 3.3339,3.3384 h 10.0057 c 1.8335,0 3.3356,-1.5059 3.3356,-3.3384 v -17.5262 h 17.5117 c 1.8356,0 3.338,-1.5011 3.338,-3.3384 v -10.0105 c 0,-1.8373 -1.5024,-3.3384 -3.3381,-3.3384 z"
         style="fill:#ffffff;fill-rule:evenodd"
         id="path312"
         inkscape:connector-curvature="0" />
    </g>
  </g>
  <g
     id="Layer1054"
     transform="matrix(0.40047853,0,0,0.39186005,842.61829,379.87113)">
    <path
       d="m -1700.7874,248.6697 c 33.9329,0 61.4404,27.5076 61.4404,61.4405 0,19.0553 -8.6754,36.0836 -22.2908,47.3532 h -78.2991 c -13.6154,-11.2696 -22.2908,-28.2979 -22.2908,-47.3532 0,-33.9329 27.5075,-61.4405 61.4403,-61.4405 z"
       style="fill:#be97ac;fill-rule:evenodd"
       id="path316"
       inkscape:connector-curvature="0" />
    <path
       d="m -1700.8204,254.2189 a 61.4073,58.6658 0 0 1 61.4073,58.6659 61.4073,58.6658 0 1 1 -61.4073,-58.6659 z"
       style="fill:#d9b2c5;fill-rule:evenodd"
       id="path318"
       inkscape:connector-curvature="0" />
    <g
       id="Layer1055">
      <path
         d="m -1734.4777,296.0863 c 0,3.4127 1.8715,4.7016 3.6791,6.5092 1.292,1.2921 14.5832,14.4189 15.0802,15.1611 -0.4842,0.7231 -13.7224,13.8033 -14.9994,15.0802 -1.5886,1.5887 -3.7599,3.3529 -3.7599,6.4284 0,2.8182 1.4426,4.111 2.8705,5.5388 2.3129,2.3129 2.799,3.194 6.3474,3.194 2.6939,0 4.5896,-2.4064 6.024,-3.8408 l 9.9457,-9.9457 c 0.875,-0.8751 1.6316,-1.6317 2.5067,-2.5067 0.6881,-0.6881 1.8385,-1.9918 2.547,-2.4662 0.7306,0.4892 13.6277,13.5469 14.9185,14.8377 2.5208,2.5208 3.3113,3.9217 7.0752,3.9217 2.5794,0 3.9589,-1.7758 5.2962,-3.1131 1.3815,-1.3814 2.9514,-2.7684 2.9514,-5.458 0,-3.2043 -1.9594,-4.7895 -3.5983,-6.4283 -1.2838,-1.2839 -14.6639,-14.4997 -15.161,-15.242 0.4744,-0.7085 1.7781,-1.8589 2.4662,-2.5471 0.875,-0.875 1.6316,-1.6315 2.5066,-2.5066 l 10.0266,-10.0266 c 1.5856,-1.5856 3.7599,-3.2036 3.7599,-6.2665 0,-2.2574 -0.97,-3.8165 -2.1414,-4.9743 -1.0959,-1.0832 -2.4838,-2.6911 -3.9517,-3.3256 -1.9656,-0.8496 -4.0668,-0.662 -5.7855,0.3025 -1.7584,0.9868 -9.3108,8.8911 -11.045,10.6253 -1.2523,1.2524 -2.3862,2.3863 -3.6386,3.6386 -0.897,0.8971 -2.7969,3.0075 -3.6791,3.5983 -1.6236,-1.0872 -15.8844,-16.3818 -18.1585,-17.743 -1.6778,-1.0042 -3.6879,-1.3058 -5.7575,-0.5129 -1.5842,0.607 -4.7601,3.7086 -5.5218,5.1516 -0.3809,0.7217 -0.8035,1.8151 -0.8035,2.916 z"
         style="fill:#d1a7bd;fill-rule:evenodd"
         id="path320"
         inkscape:connector-curvature="0" />
      <path
         d="m -1726.5505,288.4304 c 0,3.2025 1.7562,4.4121 3.4525,6.1084 1.2125,1.2125 13.6853,13.531 14.1517,14.2276 -0.4544,0.6785 -12.8775,12.9533 -14.0758,14.1517 -1.4908,1.4908 -3.5284,3.1464 -3.5284,6.0325 0,2.6447 1.3538,3.8578 2.6937,5.1978 2.1705,2.1705 2.6267,2.9973 5.9566,2.9973 2.528,0 4.307,-2.2582 5.6531,-3.6044 l 9.3333,-9.3332 c 0.8211,-0.8212 1.5311,-1.5312 2.3523,-2.3524 0.6457,-0.6457 1.7253,-1.8691 2.3902,-2.3143 0.6856,0.4591 12.7886,12.7127 13.9999,13.9241 2.3656,2.3656 3.1074,3.6802 6.6396,3.6802 2.4205,0 3.7152,-1.6665 4.9701,-2.9214 1.2964,-1.2964 2.7696,-2.5979 2.7696,-5.122 0,-3.007 -1.8387,-4.4946 -3.3766,-6.0325 -1.2049,-1.2048 -13.7611,-13.6068 -14.2276,-14.3034 0.4452,-0.6649 1.6686,-1.7445 2.3144,-2.3903 0.8211,-0.8212 1.5311,-1.5311 2.3522,-2.3523 l 9.4092,-9.4092 c 1.488,-1.4879 3.5284,-3.0064 3.5284,-5.8807 0,-2.1183 -0.9102,-3.5815 -2.0095,-4.668 -1.0284,-1.0164 -2.3308,-2.5253 -3.7084,-3.1208 -1.8446,-0.7973 -3.8164,-0.6212 -5.4292,0.2839 -1.6502,0.926 -8.7376,8.3437 -10.3649,9.971 -1.1753,1.1753 -2.2394,2.2394 -3.4146,3.4146 -0.8418,0.8418 -2.6247,2.8223 -3.4526,3.3767 -1.5236,-1.0203 -14.9063,-15.3731 -17.0404,-16.6505 -1.5745,-0.9423 -3.4608,-1.2253 -5.403,-0.4813 -1.4867,0.5696 -4.467,3.4803 -5.1818,4.8345 -0.3574,0.6772 -0.754,1.7032 -0.754,2.7364 z"
         style="fill:#ffffff;fill-rule:evenodd"
         id="path322"
         inkscape:connector-curvature="0" />
    </g>
  </g>
  <g
     id="Layer1056"
     transform="matrix(0.40047853,0,0,0.39186005,842.61829,379.87113)">
    <path
       d="m -1530.7087,78.5917 c 33.9328,0 61.4403,27.5073 61.4403,61.4398 0,19.0551 -8.6754,36.0832 -22.2908,47.3526 h -78.2989 c -13.6154,-11.2694 -22.2908,-28.2975 -22.2908,-47.3526 0,-33.9325 27.5075,-61.4398 61.4402,-61.4398 z"
       style="fill:#8589ae;fill-rule:evenodd"
       id="path326"
       inkscape:connector-curvature="0" />
    <path
       d="m -1530.7417,84.1408 a 61.4072,58.6652 0 0 1 61.4072,58.6652 61.4072,58.6652 0 1 1 -61.4072,-58.6652 z"
       style="fill:#b2b4da;fill-rule:evenodd"
       id="path328"
       inkscape:connector-curvature="0" />
    <g
       id="Layer1057">
      <g
         id="Layer1058">
        <path
           d="m -1515.5329,107.7499 a 12.1138,12.1137 0 0 1 12.1138,12.1137 12.1138,12.1137 0 1 1 -12.1138,-12.1137 z"
           style="fill:#a7abd1;fill-rule:evenodd"
           id="path330"
           inkscape:connector-curvature="0" />
        <path
           d="m -1556.9376,131.6545 a 12.1138,12.1137 0 0 1 12.1138,12.1137 12.1138,12.1137 0 1 1 -12.1138,-12.1137 z"
           style="fill:#a7abd1;fill-rule:evenodd"
           id="path332"
           inkscape:connector-curvature="0" />
        <path
           d="m -1515.5329,155.5591 a 12.1138,12.1137 0 0 1 12.1138,12.1138 12.1138,12.1137 0 1 1 -12.1138,-12.1138 z"
           style="fill:#a7abd1;fill-rule:evenodd"
           id="path334"
           inkscape:connector-curvature="0" />
        <path
           d="m -1554.9612,147.1916 41.4046,-23.9048 -3.9529,-6.8465 -41.4046,23.9047 z"
           style="fill:#a7abd1;fill-rule:evenodd"
           id="path336"
           inkscape:connector-curvature="0" />
        <path
           d="m -1517.5097,171.0965 -41.4046,-23.9048 3.9529,-6.8465 41.4046,23.9048 z"
           style="fill:#a7abd1;fill-rule:evenodd"
           id="path338"
           inkscape:connector-curvature="0" />
      </g>
      <g
         id="Layer1059">
        <path
           d="m -1515.7378,107.4149 a 10.2527,10.2527 0 0 1 10.2528,10.2526 10.2527,10.2527 0 1 1 -10.2528,-10.2526 z"
           style="fill:#ffffff;fill-rule:evenodd"
           id="path341"
           inkscape:connector-curvature="0" />
        <path
           d="m -1550.7813,127.647 a 10.2527,10.2527 0 0 1 10.2527,10.2526 10.2527,10.2527 0 1 1 -10.2527,-10.2526 z"
           style="fill:#ffffff;fill-rule:evenodd"
           id="path343"
           inkscape:connector-curvature="0" />
        <path
           d="m -1515.7378,147.879 a 10.2527,10.2527 0 0 1 10.2528,10.2527 10.2527,10.2527 0 1 1 -10.2528,-10.2527 z"
           style="fill:#ffffff;fill-rule:evenodd"
           id="path345"
           inkscape:connector-curvature="0" />
        <path
           d="m -1549.1085,140.797 35.0434,-20.2322 -3.3456,-5.7947 -35.0434,20.2322 z"
           style="fill:#ffffff;fill-rule:evenodd"
           id="path347"
           inkscape:connector-curvature="0" />
        <path
           d="m -1517.4108,161.0294 -35.0435,-20.2322 3.3456,-5.7947 35.0435,20.2322 z"
           style="fill:#ffffff;fill-rule:evenodd"
           id="path349"
           inkscape:connector-curvature="0" />
      </g>
    </g>
  </g>
  <g
     id="Layer1060"
     transform="matrix(0.40047853,0,0,0.39186005,842.61829,379.87113)">
    <path
       d="m -1530.7086,248.6704 c 33.9328,0 61.4403,27.5073 61.4403,61.4398 0,19.0551 -8.6753,36.0832 -22.2908,47.3527 h -78.299 c -13.6155,-11.2695 -22.2909,-28.2976 -22.2909,-47.3527 0,-33.9325 27.5076,-61.4398 61.4404,-61.4398 z"
       style="fill:#3fa78c;fill-rule:evenodd"
       id="path354"
       inkscape:connector-curvature="0" />
    <path
       d="m -1530.7417,254.2195 a 61.4073,58.6652 0 0 1 61.4074,58.6652 61.4073,58.6652 0 1 1 -61.4074,-58.6652 z"
       style="fill:#79dbc4;fill-rule:evenodd"
       id="path356"
       inkscape:connector-curvature="0" />
    <g
       id="Layer1061">
      <path
         d="m -1533.414,278.3239 a 8.8553,8.8552 0 0 1 8.8553,8.8552 8.8553,8.8552 0 1 1 -8.8553,-8.8552 z"
         style="fill:#72cfba;fill-rule:evenodd"
         id="path358"
         inkscape:connector-curvature="0" />
      <path
         d="m -1533.414,332.4754 a 8.8553,8.8552 0 0 1 8.8553,8.8552 8.8553,8.8552 0 1 1 -8.8553,-8.8552 z"
         style="fill:#72cfba;fill-rule:evenodd"
         id="path360"
         inkscape:connector-curvature="0" />
      <path
         d="m -1568.6886,314.2547 v 0 q 0,6.6383 6.6383,6.6383 h 57.2728 q 6.6383,0 6.6383,-6.6383 v 0 q 0,-6.6383 -6.6383,-6.6383 h -57.2728 q -6.6383,0 -6.6383,6.6383 z"
         style="fill:#72cfba;fill-rule:evenodd"
         id="path362"
         inkscape:connector-curvature="0" />
    </g>
    <g
       id="Layer1062">
      <path
         d="m -1529.2969,276.0894 a 8.192,8.192 0 0 1 8.192,8.192 8.192,8.192 0 1 1 -8.192,-8.192 z"
         style="fill:#ffffff;fill-rule:evenodd"
         id="path365"
         inkscape:connector-curvature="0" />
      <path
         d="m -1529.2969,326.1852 a 8.192,8.192 0 0 1 8.192,8.1919 8.192,8.192 0 1 1 -8.192,-8.1919 z"
         style="fill:#ffffff;fill-rule:evenodd"
         id="path367"
         inkscape:connector-curvature="0" />
      <path
         d="m -1561.9296,309.3291 v 0 q 0,6.1411 6.1411,6.1411 h 52.9833 q 6.1411,0 6.1411,-6.1411 v 0 q 0,-6.1411 -6.1411,-6.1411 h -52.9833 q -6.1411,0 -6.1411,6.1411 z"
         style="fill:#ffffff;fill-rule:evenodd"
         id="path369"
         inkscape:connector-curvature="0" />
    </g>
  </g>
  <g
     id="Layer1063"
     transform="matrix(0.40047853,0,0,0.39186005,842.61829,379.87113)">
    <path
       d="m -1360.6302,248.6701 c 33.9329,0 61.4405,27.5074 61.4405,61.4401 0,19.0552 -8.6754,36.0834 -22.2909,47.3529 h -78.2992 c -13.6155,-11.2695 -22.2909,-28.2977 -22.2909,-47.3529 0,-33.9327 27.5076,-61.4401 61.4405,-61.4401 z"
       style="fill:#c47648;fill-rule:evenodd"
       id="path373"
       inkscape:connector-curvature="0" />
    <path
       d="m -1360.6632,254.2193 a 61.4075,58.6655 0 0 1 61.4074,58.6654 61.4075,58.6655 0 1 1 -61.4074,-58.6654 z"
       style="fill:#f1a06b;fill-rule:evenodd"
       id="path375"
       inkscape:connector-curvature="0" />
    <path
       d="m -1398.6103,314.2547 v 0 q 0,6.6383 6.6384,6.6383 h 57.2728 q 6.6384,0 6.6384,-6.6383 v 0 q 0,-6.6383 -6.6384,-6.6383 h -57.2728 q -6.6384,0 -6.6384,6.6383 z"
       style="fill:#e69665;fill-rule:evenodd"
       id="path377"
       inkscape:connector-curvature="0" />
    <path
       d="m -1391.8513,309.3291 v 0 q 0,6.1412 6.1412,6.1412 h 52.9834 q 6.1411,0 6.1411,-6.1412 v 0 q 0,-6.1411 -6.1411,-6.1411 h -52.9834 q -6.1412,0 -6.1412,6.1411 z"
       style="fill:#ffffff;fill-rule:evenodd"
       id="path379"
       inkscape:connector-curvature="0" />
  </g>
</svg>
